/* XPM */
static char *result[] = {
/* columns rows colors chars-per-pixel */
"64 64 197 2 ",
"   c #170F1F",
".  c #0F151F",
"X  c #10141E",
"o  c #27161F",
"O  c #2E131F",
"+  c #32121D",
"@  c #0F1521",
"#  c #0F1F2F",
"$  c #111420",
"%  c #1C1524",
"&  c #151D26",
"*  c #1B1B26",
"=  c #141E29",
"-  c #1B1C29",
";  c #241625",
":  c #2B1323",
">  c #211825",
",  c #241629",
"<  c #2B1629",
"1  c #251D2C",
"2  c #2B1C2C",
"3  c #2F1A27",
"4  c #341424",
"5  c #321826",
"6  c #351629",
"7  c #341A2B",
"8  c #3C1B2C",
"9  c #3A1626",
"0  c #3E1E32",
"q  c #361C30",
"w  c #291B31",
"e  c #0F202D",
"r  c #15212B",
"t  c #1A242E",
"y  c #1B2630",
"u  c #1E2C35",
"i  c #1F2F3A",
"p  c #1F303A",
"a  c #1E3037",
"s  c #22222E",
"d  c #34202A",
"f  c #242331",
"g  c #2B2533",
"h  c #212D36",
"j  c #2C2835",
"k  c #222F38",
"l  c #2A2D39",
"z  c #332B37",
"x  c #362836",
"c  c #25333B",
"v  c #29343D",
"b  c #28383F",
"n  c #421A2D",
"m  c #4E1D2E",
"M  c #421723",
"N  c #571D2F",
"B  c #421D31",
"V  c #4C1D30",
"C  c #541F34",
"Z  c #5B1E32",
"A  c #48212A",
"S  c #422231",
"D  c #4E2033",
"F  c #552234",
"G  c #5B2134",
"H  c #47323A",
"J  c #55242C",
"K  c #61232A",
"L  c #6B2027",
"P  c #7C252E",
"I  c #7A282C",
"U  c #762A2D",
"Y  c #642235",
"T  c #6D2537",
"R  c #6D263A",
"E  c #622439",
"W  c #752436",
"Q  c #7A2435",
"!  c #732439",
"~  c #762B30",
"^  c #7F3234",
"/  c #193248",
"(  c #3A2F47",
")  c #3C2D48",
"_  c #2A3740",
"`  c #2D3C43",
"'  c #323A44",
"]  c #383841",
"[  c #52274E",
"{  c #413B49",
"}  c #512850",
"|  c #403F52",
" . c #6C3466",
".. c #713267",
"X. c #723169",
"o. c #33434A",
"O. c #39464F",
"+. c #35484F",
"@. c #3A4B4F",
"#. c #284657",
"$. c #3B4650",
"%. c #374A51",
"&. c #3A4B51",
"*. c #314958",
"=. c #3B525A",
"-. c #3B5C77",
";. c #325466",
":. c #484B58",
">. c #44565C",
",. c #43585D",
"<. c #4A555C",
"1. c #54555E",
"2. c #4A5D63",
"3. c #475F64",
"4. c #5B5967",
"5. c #4A6065",
"6. c #4E646A",
"7. c #4F686E",
"8. c #526469",
"9. c #406775",
"0. c #526C70",
"q. c #5C6F74",
"w. c #567276",
"e. c #587176",
"r. c #567278",
"t. c #5A7279",
"y. c #5F787B",
"u. c #616C70",
"i. c #637C7E",
"p. c #6A7E7E",
"a. c #92302E",
"s. c #842B32",
"d. c #8B2E31",
"f. c #942C33",
"g. c #9A2E33",
"h. c #843135",
"j. c #9D3335",
"k. c #97363B",
"l. c #A4312F",
"z. c #A72F31",
"x. c #A43131",
"c. c #3D6A87",
"v. c #3D6A88",
"b. c #446C88",
"n. c #4A7B9E",
"m. c #477C9F",
"M. c #517C9B",
"N. c #607C80",
"B. c #4A7DA2",
"V. c #9C418B",
"C. c #974487",
"Z. c #598491",
"A. c #548A9A",
"S. c #54809C",
"D. c #6C8385",
"F. c #6B8589",
"G. c #738B8B",
"H. c #708083",
"J. c #7B8F90",
"K. c #7B9292",
"L. c #7C999B",
"P. c #7B9397",
"I. c #5A8DAD",
"U. c #5B90AE",
"Y. c #4F8FB9",
"T. c #528EB6",
"R. c #518FBA",
"E. c #588EB3",
"W. c #4F90B9",
"Q. c #4E90B7",
"!. c #5697BD",
"~. c #5A90B2",
"^. c #4E84A4",
"/. c #618FA1",
"(. c #6096B4",
"). c #67A2B5",
"_. c #6AA1B4",
"`. c #6DA9BF",
"'. c #5A9EC0",
"]. c #5AA0C1",
"[. c #6EB6CE",
"{. c #77BDCE",
"}. c #78BDCE",
"|. c #78B5C6",
" X c #6EB6D0",
".X c #74BED4",
"XX c #7ABBD0",
"oX c #67AAC0",
"OX c #819696",
"+X c #819896",
"@X c #88999B",
"#X c #8D9FA0",
"$X c #94A6A5",
"%X c #9AABA9",
"&X c #A8B6B3",
"*X c #A7B6B2",
"=X c None",
/* pixels */
"=X=X=X=X=X=X=X=X=X=X=X=X=X=X=X=X=X=X=X=X=X=X=X=X=X=X=X=X=X=X=X=X=X=X=X=X=X=X=X=X=X=X=X=X=X=X=X=X=X=X=X=X=X=X=X=X=X=X=X=X=X=X=X=X",
"=X=X=X=X=X=X=X=X=X=X=X=X=X=X=X=X=X=X=X=X=X=X=X=X=X=X=X=X=X=X=X=X=X=X=X=X=X=X=X=X=X=X=X=X=X=X=X=X=X=X=X=X=X=X=X=X=X=X=X=X=X=X=X=X",
"=X=X=X=X=X=X=X=X=X=X=X=X=X=X=X=X=X& & =X=X=X=X=X=X=X=X=X=X& = = & & & =X=X=X=X=X=X=X=X=X=X& & =X=X=X=X=X=X=X=X=X=X=X=X=X=X=X=X=X",
"=X=X=X=X=X=X=X=X=X=X=X=X=X=X=X=X=Xr r =X=X=X=X=X=X=X=X=X& = = = & = = & =X=X=X=X=X=X=X=X=Xr = =X=X=X=X=X=X=X=X=X=X=X=X=X=X=X=X=X",
"=X=X=X=X=X=X=X=X=X=X=X=X=X=X=X=X= /._.r & =X=X=X=X=X=X=X& & ' o.O.o.o._ = & & =X=X=X=X& r _./.= =X=X=X=X=X=X=X=X=X=X=X=X=X=X=X=X",
"=X=X=X=X=X=X=X=X=X=X=X=X=X=X=X& e ).XXe & =X=X=X=X=X=X=X= & O.&.@.&.&.' r & = =X=X=X=X& = XX).# & =X=X=X=X=X=X=X=X=X=X=X=X=X=X=X",
"=X=X=X=X=X=X=X=X=X=X=X=X=X=X=X& = )..X= & =X=X=X=X& & & = = & = &.&.&.&.&.&.&.b = = & = # {._.r & =X=X=X=X=X=X=X=X=X=X=X=X=X=X=X",
"=X=X=X=X=X=X=X=X=X=X=X=X=X=X=X& r ).XX= & =X=X=X=Xr t r = t = t o.o.$.&.&.&.&.b t y = = = }.).# & =X=X=X=X=X=X=X=X=X=X=X=X=X=X=X",
"=X=X=X=X=X=X=X=X=X=X=X=X=X=X=X& e ).XXr & & = = t h h i h h i h r t @.&.&.&.@.@.@.h & & # }.).# & =X=X=X=X=X=X=X=X=X=X=X=X=X=X=X",
"=X=X=X=X=X=X=X=X=X=X=X=X=X=X=X#.#.oX.X;.*.= & t u i c _ _ b h i t u &.:.>.,.,.,.>.` k & = }.).= & =X=X=X=X=X=X=X=X=X=X=X=X=X=X=X",
"=X=X=X=X=X=X=X=X=X=X=X=X=X& = v.Q. X.X X).= t i h h ` &.&.&.c a i c %.,.q.r.w.w.w.2.&.y = {.).= & =X=X=X=X=X=X=X=X=X=X=X=X=X=X=X",
"=X=X=X=X=X=X=X=X=X=X=X=X=X& = c.W.[..X.X).= y i b ` o.%.3.2.o.` i b &.,.w.i.F.i.w.,.$.y # }.).# t =X=X=X=X=X=X=X=X=X=X=X=X=X=X=X",
"=X=X=X=X=X=X=X=X=X=X=X=X=X& = v.Y. X.X.X).= t u ` %.&.&.6.r.=.&.u c &.,.w.F.+XF.w.,.%.t = .X).# & =X=X=X=X=X=X=X=X=X=X=X=X=X=X=X",
"=X=X=X=X=X=X=X=X=X=X=X=X=X& = v.!. X.X.X).= t i ` %.&.&.6.w.6.6.h h _ @.w.J.%XJ.w.,.&.o.` =.*.= & =X=X=X=X=X=X=X=X=X=X=X=X=X=X=X",
"=X=X=X=X=X=X=X=X=X=X=X=X=X& = v.W. X.X.X).# t i ' $.&.&.6.r.r.q.i i h o.w.OX*XP.q.,.%.&.&.= = = & =X=X=X=X=X=X=X=X=X=X=X=X=X=X=X",
"=X=X=X=X=X=X=X=X=X=X=X=X=X& # v.W.!.]..X[.A.9.t u h h k _ _ 7.q.h h h o.w.K.&X#XG.2.&.5.7.= = = & =X=X=X=X=X=X=X=X=X=X=X=X=X=X=X",
"=X=X=X=X=X=X=X=X=X=X=X=X=X& & b.T.R.Y..X.X.XA.= & & & & = = 6.q.h i i +.q.J.*X$XOX8.%.7.r.= & & & =X=X=X=X=X=X=X=X=X=X=X=X=X=X=X",
"=X=X=X=X=X=X=X=X=X=X=X=X=X=X=Xp / B.Y.'.'..XA.= t h i u u u u h r r & ` q.OX&X$XOX8.&.c u & - =X=X=X=X=X=X=X=X=X=X=X=X=X=X=X=X=X",
"=X=X=X=X=X=X=X=X=X=X=X=X=X=X=X& = n.Y.R.!..XA.= t k h k h h r = & & = _ r.P.&X$X+X6.&.y = = = =X=X=X=X=X=X=X=X=X=X=X=X=X=X=X=X=X",
"=X=X=X=X=X=X=X=X=X=X=X=X=X=X=X& # B.Y.R.R.Y.v.= & $ $ X @ @ u h k k i o.q.OX&X$XOX8.&.0.q.= & =X=X=X=X=X=X=X=X=X=X=X=X=X=X=X=X=X",
"=X=X=X=X=X=X=X=X=X=X=X=X=X=X=X=X# b.n.B.B.B.-.= r & & X $ . y f ( ( ( | 8.p.#XOXH.4.:.2.6.= & =X=X=X=X=X=X=X=X=X=X=X=X=X=X=X=X=X",
"=X=X=X=X=X=X=X=X=X=X=X=X=X=X=X=X=X= = = = = = = c @.` h & X .   C.V.V.X.X $   $ X  .V.w @ & & =X=X=X=XX X X X . =X=X=X=X=X=X=X=X",
"=X=X=X=X=X=X=X=X=X=X=X=X=X=X=X=X=X& & y t t = y b @.` h u y c v  .....} $ $ X $ X [ X.| o.& & =X=X=X=X$ X . X X =X=X=X=X=X=X=X=X",
"=X=X=X=X=X=X=X=X=X=X=X=X=X=X=X=X=X- & k u h i h ` +.o.a o.&.0.e.X $ $ $   $ X X X X % N.+X& & =X=XX X $ X $ X X =X=X=X=X=X=X=X=X",
"=X=X=X=X=X=X=X=X=X=X=X=X=X=X=X=X=X- - f f i i h ` @.` a o.&.0.w.o.O.<.:.o.h X t h ' +.G.OX& & =XX . X X X X X =X=X=X=X=X=X=X=X=X",
"=X=X=X=X=X=X=X=X=X=X=X=X=X=X=X; , , ; ; , k h i ` @.o.a o.&.0.w.r.y.L.G.w.o.X k &.6.w.K.OX& & X X $ X X X X =X=X=X=X=X=X=X=X=X=X",
"=X=X=X=X=X=X=X=X=X=X=X=X=X=X=X> ; n V C B 1 f f ' @.` u o.&.0.w.r.y.OXG.w.o.X k &.6.w.J.OX& & X . . X . . =X=X=X=X=X=X=X=X=X=X=X",
"=X=X=X=X=X=X=X=X=X=X=X=X=X=X=Xo : Y ! W Y < : : z &.` a o.&.0.w.w.y.+XG.t.o.X k &.6.w.K.OX& - $ X . $ X =X=X=X=X=X=X=X=X=X=X=X=X",
"=X=X=X=X=X=X=X=X=X=X=X=X=X=X; m Z R ! ! W Q P I J j s 1 g j 8.w.w.y.OXG.w.o.. k @.8.w.K.OX* , % % X X =X=X=X=X=X=X=X=X=X=X=X=X=X",
"=X=X=X=X=X=X=X=X=X=X=X=X=X; ; G W W ! ! s.z.x.z.L : ; : O ; 6.e.q.i.OXG.w.+.X c @.6.e.K.OX; ; > % . X =X=X=X=X=X=X=X=X=X=X=X=X=X",
"=X=X=X=X=X=X=X=X=X=X=X=X=X; ; Z W ! ! ! Q x.x.x.g.d.d.d.d.h.S j g g z z g s > 1 s g j z x d.~ : ; =X=X=X=X=X=X=X=X=X=X=X=X=X=X=X",
"=X=X=X=X=X=X=X=X=X=X=X=X=X; : G ! R ! ! Q x.x.x.x.x.x.x.l.j.M : : : o O O O O + : O O : + j.d.: > =X=X=X=X=X=X=X=X=X=X=X=X=X=X=X",
"=X=X=X=X=X=X=X=X=X=X=X=X, F ! n : < : ! W W s.z.l.z.x.x.l.z.j.j.j.j.j.j.j.j.j.j.j.j.j.j.j.x.d.4 - =X=X=X=X=X=X=X=X=X=X=X=X=X=X=X",
"=X=X=X=X=X=X=X=X=X=X=X5 6 Z ! V 7 , : G Y Y Q g.g.g.g.g.g.g.z.l.x.x.x.x.x.z.x.x.l.l.x.x.z.g.s.: ; =X=X=X=X=X=X=X=X=X=X=X=X=X=X=X",
"=X=X=X=X=X=X=X=X=X=X; n ! ! ! ! ! 6 ; : : ; n W W W W W W Q g.z.x.x.x.x.x.x.x.x.z.l.l.z.x.Q Y : > =X=X=X=X=X=X=X=X=X=X=X=X=X=X=X",
"=X=X=X=X=X=X=X=X=X=X: V ! ! ! E E 2 * j j j x Z Z Z Y W W W f.f.d.f.f.f.f.f.f.f.f.f.f.f.f.! Y : > =X=X=X=X=X=X=X=X=X=X=X=X=X=X=X",
"=X=X=X=X=X=X=X=X=X=X; D ! Q ! C B 1 = &.&.&.] ; : : m Q ! W W W W W W W W Q W W Q W W W W W Y : , =X=X=X=X=X=X=X=X=X=X=X=X=X=X=X",
"=X=X=X=X=X=X=X=X=X7 m Y W Y Z 0 w l c 3.2.3.2.1.' * 6 C m C V m m Z W ! ! ! ! ! ! Z m m m D S =X=X=X=X=X=X=X=X=X=X=X=X=X=X=X=X=X",
"=X=X=X=X=X=X=X=X; n W W ! C B s & o.&.e.w.w.N.OX2.& % , : , ; ; < 6 ! ! W ! W W W 8 , , , & & =X=X=X=X=X=X=X=X=X=X=X=X=X=X=X=X=X",
"=X=X=X=X=X=X=X=X; 8 W ! ! C S w & o.@.e.w.w.p.OX<.& t f l v v v O.{ V V V V V V m ] :.1 - & & =X=X=X=X=X=X=X=X=X=X=X=X=X=X=X=X=X",
"=X=X=X=X=X=X=X=X; n W ! W Z x , & o.&.q.r.r.i.+X,.r y a o.@.%.&.e.8.; ; > ; ; ; ; >.t.k = = = =X=X=X=X=X=X=X=X=X=X=X=X=X=X=X=X=X",
"=X=X=X=X=X=X> 5 C Y W W W C B 1 & +.%.3.3.G.t.%.` y v o.,.6.6.6.>.>.' ' ' o.' ' ] &.>.y = u y = =X=X=X=X=X=X=X=X=X=X=X=X=X=X=X=X",
"=X=X=X=X=X=X> 9 W W W W R F 0 1 & o.%.&.,.L.q.& t a o.&.6.w.w.w.&.&.%.&.%.%.%.%.&.&.&.y = i u = r =X=X=X=X=X=X=X=X=X=X=X=X=X=X=X",
"=X=X=X=X=X=X, 5 ! ! ! Y V 7 & -.B.).oX^.I.|.Z.& t a ` &.6.w.w.w.0.0.0.0.0.0.0.0.0.0.0.h = B.b.= - ; , > ; ; =X=X=X=X> ; , > =X=X",
"=X=X=X=X=X=X; 9 ! W W G B 1 = c.Y. X.XY.!..XA.& y a ` &.6.e.w.w.w.w.w.w.w.w.w.w.e.q.w.h = T.n.= * : : O O : =X=X=X=XO : 4 ; =X=X",
"=X=X=X=X> O R T W ! ! Z x , = c.R. X.X!.!..XA.& t u ` &.&.&.&.&.w.w.w.w.r.w.w.w.w.e.w.h = E.B.# A k.x.j.x.j.D ; ; O k.j.j.k.=X=X",
"=X=X=X=X, : ! W Q ! Y Z B w = b.E.|.|.~.(.|.Z.= t i b o.o.o.o.o.0.0.0.0.0.0.0.0.0.0.0.u = ~.M.v H h.a.x.l.l.K M 9 M j.l.d.^ =X=X",
"=X=X=X=X; : T W W Y B B B 1 & q.L.P.L.L.L.L.q.= & r & & & r = = &.%.%.&.@.%.%.%.&.%.&.y = L.L.+Xu.o A x.l.l.j.j.j.x.l.d.+ o =X=X",
"=X=X=X=X, : ! W W Y B B 0 1 & ,.p.p.p.G.G.G.u.` u & r t y i h h ' ` ' ` ` ` ' _ ' ` ' t r p.p.p.7.` H U d.x.x.x.g.f.I U O =X=X=X",
"=X=X=X=X, : ! W ! Y 0 B 0 1 & o.&.&.@.e.w.w.w.w.+.& y h o.%.&.&.= & & & & & r = r & & & r %.@.@.,.e.>.& K x.x.x.s.! + ; =X=X=X=X",
"=X=X=X=X; : ! W W Y B V F 2 & ' &.@.&.w.w.w.w.w.+.= y a o.@.&.%.i h h c _ ` _ v h h h r & @.&.&.>.w.,.& J g.f.f.K C o =X=X=X=X=X",
"=X=X=X=X> : R W W Y B Z W d r ` &.&.&.w.w.w.w.w.+.= t c o.&.&.@.&.@.&.,.w.w.r.2.@.@.&.t = @.%.&.>.w.,.& S ! ! ! 6 ; =X=X=X=X=X=X",
"=X=X=X=X; : ! W W G 7 F W S 2 l b +.@.2.2.2.>.%.c & = y k v v v c b c _ +.+.O.' c b v t & @.%.&.>.3.&.& 7 V V V 3 =X=X=X=X=X=X=X",
"=X=X=X=X, : ! Q ! F : V W C n 1 = o.O.%.&.$.` = & = & = & & & r & & & & & = & = & & & & = &.&.@.@.@._ = * < ; ; =X=X=X=X=X=X=X=X",
"=X=X=X=X, : R Y n 8 =XG ! C B D F j h h i h u = & = t u _ ` ` ` & = & = = = = t u _ ` ` ' h h h u h h =X=X=X=X=X=X=X=X=X=X=X=X=X",
"=X=X=X=X> : R E ; ; =X=X! F B Y T 2 * = = = & = & & y k ' &.&.&.= = & = = = = y i ' %.&.&.& & & & & & =X=X=X=X=X=X=X=X=X=X=X=X=X",
"=X=X=X=X=X=X6 7 =X=X=X=X9 8 B E ! S g , - = = & & & t c o.&.&.&.& = & = = = = y h o.@.&.&.= & =X=X=X=X=X=X=X=X=X=X=X=X=X=X=X=X=X",
"=X=X=X=X=X=X; ; =X=X=X=X* q B Y R V B ; > * = & & r y h o.&.&.@.= & & & & = = y h o.@.&.&.& & =X=X=X=X=X=X=X=X=X=X=X=X=X=X=X=X=X",
"=X=X=X=X=X=X, ; =X=X=X=X=X; : 8 n 7 ; =X=X& & & y k a a i u a a = & =X=X= y k k h h h t & =X=X=X=X=X=X=X=X=X=X=X=X=X=X=X=X=X=X=X",
"=X=X=X=X=X=X> % =X=X=X=X=X=X; q q < > =X=X& & & y v c p c c h u - & =X=X- t i k c c c y t =X=X=X=X=X=X=X=X=X=X=X=X=X=X=X=X=X=X=X",
"=X=X=X=X=X=X=X=X=X=X=X=X=X=X=X> ; =X=X=X=X=X=X& b &.&.&.&.&.t & =X=X=X=X=X=X& b &.&.&.@.@.@.@.=X=X=X=X=X=X=X=X=X=X=X=X=X=X=X=X=X",
"=X=X=X=X=X=X=X=X=X=X=X=X=X=X=X=X> =X=X=X=X=X=X& c %.+.@.@.&.t & =X=X=X=X=X=X& v &.@.@.@.@.@.@.=X=X=X=X=X=X=X=X=X=X=X=X=X=X=X=X=X",
"=X=X=X=X=X=X=X=X=X=X=X=X=X=X=X=X=X=X=X=X=X=X=X=X=X=X=X=X=X=X=X=X=X=X=X=X=X=X=X=X=X=X=X=X=X=X=X=X=X=X=X=X=X=X=X=X=X=X=X=X=X=X=X=X",
"=X=X=X=X=X=X=X=X=X=X=X=X=X=X=X=X=X=X=X=X=X=X=X=X=X=X=X=X=X=X=X=X=X=X=X=X=X=X=X=X=X=X=X=X=X=X=X=X=X=X=X=X=X=X=X=X=X=X=X=X=X=X=X=X"
};
