/* XPM */
static char *c7be06409a264bdea527395ec12100afKHpVJQqsRVo0f84m[] = {
/* columns rows colors chars-per-pixel */
"32 32 191 2 ",
"   c #47704C",
".  c #261C07",
"X  c #160906",
"o  c #12060E",
"O  c #40320A",
"+  c None",
"@  c #53242E",
"#  c black",
"$  c black",
"%  c #0A0407",
"&  c black",
"*  c #14070B",
"=  c #33161D",
"-  c #080503",
";  c #300D18",
":  c #2D1017",
">  c #090710",
",  c #2B160C",
"<  c black",
"1  c #2F2108",
"2  c #785A11",
"3  c #061D3F",
"4  c #1D0D0F",
"5  c #1E080F",
"6  c #290E15",
"7  c #20151C",
"8  c #4E3D0B",
"9  c #2A0E18",
"0  c #110A14",
"q  c #3B1A1F",
"w  c #0B0A12",
"e  c #13070B",
"r  c #411C26",
"t  c #6E550F",
"y  c #42351C",
"u  c #55370E",
"i  c #5E3D0F",
"p  c #8F6915",
"a  c #685044",
"s  c #120D0A",
"d  c #392218",
"f  c #0A1425",
"g  c #9B541A",
"h  c #AD5D1C",
"j  c #A27B17",
"k  c #6F5610",
"l  c #8B6315",
"z  c #58410E",
"x  c #4D2228",
"c  c #BD931A",
"v  c #18121B",
"b  c #00040B",
"n  c #32161E",
"m  c #936E15",
"M  c #B18A18",
"N  c #401A21",
"B  c black",
"V  c #481F25",
"C  c #2E3448",
"Z  c #A47B17",
"A  c #481F26",
"S  c #C8821E",
"D  c #653312",
"F  c #B67E1B",
"G  c #815B13",
"H  c #28111B",
"J  c #845C14",
"K  c #AA8417",
"L  c #2F0B17",
"P  c #5D473B",
"I  c #1E1A1C",
"U  c #7D4D14",
"Y  c #7D4416",
"T  c #906755",
"R  c #3F393D",
"E  c #704727",
"W  c #917466",
"Q  c #1F222D",
"!  c #D1A185",
"~  c #705A4B",
"^  c #653712",
"/  c #05080D",
"(  c #464A5C",
")  c #B3611E",
"_  c #321C11",
"`  c #FFC622",
"'  c #FFC822",
"]  c #4E2130",
"[  c #491F2F",
"{  c #FEC522",
"}  c #060F27",
"|  c #C0671F",
" . c #E5AF1F",
".. c #051735",
"X. c #171725",
"o. c #E17D26",
"O. c #F48528",
"+. c #D97524",
"@. c #321420",
"#. c #5E2933",
"$. c #AA8017",
"%. c #25293B",
"&. c #C5971B",
"*. c #080C1E",
"=. c #19131E",
"-. c #F4B022",
";. c #F5BE20",
":. c #363241",
">. c #F8B423",
",. c #B6681D",
"<. c #D27224",
"1. c #FF8B29",
"2. c #3E1925",
"3. c #996717",
"4. c #270E18",
"5. c #200810",
"6. c #221422",
"7. c #5A648B",
"8. c #DFAC1E",
"9. c #FCC221",
"0. c #393D4E",
"q. c #D77B23",
"w. c #5D627C",
"e. c #B07819",
"r. c #1C1C2E",
"t. c #D1A11C",
"y. c #24313F",
"u. c #A05522",
"i. c #BC9219",
"p. c #854636",
"a. c #443239",
"s. c #C86D21",
"d. c #D38920",
"f. c #706667",
"g. c #AF611D",
"h. c #F6A025",
"j. c #F09D24",
"k. c #7B716E",
"l. c #754429",
"z. c #9F714B",
"x. c #AB6D3C",
"c. c #999191",
"v. c #98581E",
"b. c #948B89",
"n. c #C46A1F",
"m. c #2C2030",
"M. c #4C4857",
"N. c #0F0917",
"B. c #555D82",
"V. c #1D2339",
"C. c #A77419",
"Z. c #E08B23",
"A. c #D07F21",
"S. c #E59B22",
"D. c #CE911E",
"F. c #EBB720",
"G. c #C5841D",
"H. c #370D1C",
"J. c #A46C19",
"K. c #04244E",
"L. c #E7A521",
"P. c #B38B18",
"I. c #9F5F29",
"U. c #B07A69",
"Y. c #E88426",
"T. c #595257",
"R. c #BA6A2A",
"E. c #8B5932",
"W. c #B08D7C",
"Q. c #A5897B",
"!. c #C0967E",
"~. c #6E4110",
"^. c #FDC09E",
"/. c #F7C3A6",
"(. c #F09326",
"). c #957B77",
"_. c #E59323",
"`. c #B1591F",
"'. c #613828",
"]. c #6B3D11",
"[. c #A97419",
"{. c #E5CAB4",
"}. c #93936B",
"|. c #E2AD8F",
" X c #698488",
".X c #236131",
"XX c #85532A",
"oX c #B27442",
"OX c #EC8826",
"+X c #8C796C",
"@X c #828084",
/* pixels */
"                                # # #                           ",
"                    # $   - u t G J 2 8 1 $                     ",
"                    8 k z m $.C.3.,.q.A.F 2 .                   ",
"                    O l 3.$.&.8.;.t.e.o.O.S.K .                 ",
"                    O j  .{ ' ' ` ' ;.G.,.J.&.2 $               ",
"                  O c { ' ` ` ` ` `  .i.8.L.e.p O               ",
"                . M { ` ` ` ` ` ` F.P.;.h.<.I.p O               ",
"                t  .-.{ ` ` ` ` ' i.t.h.+.p.U.E <               ",
"              - Z Z.D.' -.9.` ` 9.$._.+.].~.z.a                 ",
"              y S s.&.>.Y.>.' >.d.[.O.u.l.'.T y                 ",
"              i q.g. .j.O.j.{ (.`.,.+.p.a.y.W s                 ",
"            # U o.u.d.o.1.O.-.OX| | R.). X.X~ <                 ",
"              D g Y | s.1.o.v.n.<.| x./.{.}.! P                 ",
"              . , i n.| 1.x.@X+Xz.XXE.|.^.W.!.a                 ",
"                  1 h g +.<.oXk.b.c.b.c.Q.f.a.d                 ",
"                  # , d ) g.h _ v.l.0.f.k.T.H.L X               ",
"                        u ^ X f =.X.3 3 :.R : ; e               ",
"                          $ / ( X.} ....f I r @ e               ",
"                          s Q w.r.} K...> H [ A %               ",
"                          > %.:.X.*.*...3 6.] q <               ",
"                        & 0 =.:.y.} X.%.} *.9 4                 ",
"                        % w 0.7.r.} V.B.7 o b                   ",
"                        % w M.w.=.N.%.7.C                       ",
"                        & 0 4.4.5.5.6.m.v #                     ",
"                        # = [ 2.@.@.@.2.6 &                     ",
"                        # = ] [ ] + + ] @ ,                     ",
"                        # = ] [ @ n + [ #.7                     ",
"                        X A #.#.V > + @ x 4                     ",
"                        % : N q * * 9 : o #                     ",
"                        % ; 6 B   5 9 o #                       ",
"                        - 5 %     * % $                         ",
"                          $                                     "
};
