/* XPM */
static char *result[] = {
/* columns rows colors chars-per-pixel */
"50 50 136 2 ",
"   c #3A1724",
".  c #3D1A26",
"X  c #46232B",
"o  c #442533",
"O  c #472936",
"+  c #4B2B37",
"@  c #4A2D3C",
"#  c #563535",
"$  c #5A3036",
"%  c #50323E",
"&  c #5E3539",
"*  c #5C3C3B",
"=  c #60373A",
"-  c #633B3C",
";  c #64443E",
":  c #4F3444",
">  c #543B4B",
",  c #614341",
"<  c #6A4440",
"1  c #6F4B44",
"2  c #714E45",
"3  c #745147",
"4  c #775349",
"5  c #7D5E4D",
"6  c #5E4D61",
"7  c #746476",
"8  c #736579",
"9  c #75687C",
"0  c #F86A09",
"q  c #F56D12",
"w  c #F86F12",
"e  c #F77117",
"r  c #F87012",
"t  c #F7731A",
"y  c #F8751B",
"u  c #F67621",
"i  c #F67823",
"p  c #F97A22",
"a  c #F57C2C",
"s  c #80614F",
"d  c #846652",
"f  c #886758",
"g  c #90745A",
"h  c #F6802F",
"j  c #F88937",
"k  c #F38238",
"l  c #F6883F",
"z  c #9C8260",
"x  c #A18764",
"c  c #AF9675",
"v  c #B09775",
"b  c #E0844C",
"n  c #F28743",
"m  c #F88F40",
"M  c #F89143",
"N  c #F7954D",
"B  c #FA9048",
"V  c #F89D55",
"C  c #FB9E5E",
"Z  c #F8A35F",
"A  c #D88D63",
"S  c #FBA165",
"D  c #FBA469",
"F  c #F0A778",
"G  c #FCAF7B",
"H  c #F8B173",
"J  c #796E83",
"K  c #7E7991",
"L  c #817689",
"P  c #82798F",
"I  c #847C92",
"U  c #868096",
"Y  c #82849F",
"T  c #898EA9",
"R  c #8B92AE",
"E  c #8E95B1",
"W  c #9097B3",
"Q  c #949BB7",
"!  c #959DB8",
"~  c #989FBB",
"^  c #9AA2BD",
"/  c #BBADB5",
"(  c #B8AFBD",
")  c #B8B0BD",
"_  c #C5AC8D",
"`  c #D9AC9C",
"'  c #EDA781",
"]  c #EDA984",
"[  c #EFB18F",
"{  c #F8BD86",
"}  c #E9AE90",
"|  c #EAB69F",
" . c #D2AFA5",
".. c #D4B7B3",
"X. c #EAB9A4",
"o. c #E6BCAD",
"O. c #E9BEAC",
"+. c #FCC59F",
"@. c #FDCEAD",
"#. c #F8D3A6",
"$. c #F8D5AA",
"%. c #F8D9AF",
"&. c #F8DEB6",
"*. c #9EA5C1",
"=. c #A1A7C3",
"-. c #A4AAC5",
";. c #A6AEC9",
":. c #ABB3CE",
">. c #B5B3C5",
",. c #B7B6CA",
"<. c #B6B8CD",
"1. c #B8B9CD",
"2. c #AEB6D1",
"3. c #B0B7D1",
"4. c #B1B8D3",
"5. c #B8BDD6",
"6. c #B7BFDA",
"7. c #BAC1DB",
"8. c #FEEADC",
"9. c #C3CAE4",
"0. c #CCCCE0",
"q. c #C7CEE8",
"w. c #C8CFE9",
"e. c #CBD0E7",
"r. c #CCD3EC",
"t. c #D2D0E2",
"y. c #D1D5EB",
"u. c #E4D9E3",
"i. c #E3DCEA",
"p. c #DCE0F7",
"a. c #DCE2FB",
"s. c #E2E3F6",
"d. c #E1E6FE",
"f. c #FFFAF6",
"g. c #FFFEFE",
"h. c None",
/* pixels */
"h.h.h.h.h.h.h.h.h.h.h.h.h.h.h.h.h.h.h.h.h.h.h.h.h.h.h.h.h.h.h.h.h.h.h.h.h.h.h.h.h.h.h.h.h.h.h.h.h.h.",
"h.h.h.h.h.h.h.h.h.h.h.h.h.h.h.h.h.h.h.h.h.h.h.h.h.h.h.h.h.h.h.h.h.h.h.h.h.h.h.h.h.h.h.h.h.h.h.h.h.h.",
"h.h.h.h.h.h.h.h.h.h.h.h.h.h.h.h.h.h.h.h.h.h.h.h.h.h.h.h.h.h.h.h.h.h.h.h.h.h.h.h.h.h.h.h.h.h.h.h.h.h.",
"h.h.h.h.h.h.h.h.h.h.h.h.h.h.h.h.h.h.h.h._ _ _ _ _ _ _ _ _ _ _ h.h.h.h.h.h.h.h.h.h.h.h.h.h.h.h.h.h.h.",
"h.h.h.h.h.h.h.h.h.h.h.h.h.h.h.h.h.h.h.h._ _ _ _ _ _ _ _ _ _ _ h.h.h.h.h.h.h.h.h.h.h.h.h.h.h.h.h.h.h.",
"h.h.h.h.h.h.h.h.h.h.h.h.h.h.h.h.h.$ = f v v v v v v v v v v g - $ h.h.h.h.h.h.h.h.h.h.h.h.h.h.h.h.h.",
"h.h.h.h.h.h.h.h.h.h.h.h.h.h.h.h.h.$ = 4 x x x x x x x x x x s - $ h.h.h.h.h.h.h.h.h.h.h.h.h.h.h.h.h.",
"h.h.h.h.h.h.h.h.h.h.h.h.h.h.h.h.h.= = 4 g x x z z z z x x g s - = = h.h.h.h.h.h.h.h.h.h.h.h.h.h.h.h.",
"h.h.h.h.h.h.h.h.h.h.h.h.h.h.$ $ ; 1 3 5 g g g g g g g g g g d 2 2 - $ $ h.h.h.h.h.h.h.h.h.h.h.h.h.h.",
"h.h.h.h.h.h.h.h.h.h.h.h.h.h.$ $ ; 5 d d d d d d d d d d d d d d s 2 $ $ h.h.h.h.h.h.h.h.h.h.h.h.h.h.",
"h.h.h.h.h.h.h.h.h.h.h.h.h.h.$ $ ; s d d d d d d d d d d d d d d s 2 $ $ h.h.h.h.h.h.h.h.h.h.h.h.h.h.",
"h.h.h.h.h.h.h.h.h.h.h.R R W ^ -.L % X # d d d d d d d d d d ; X + 7 -.-.W R R h.h.h.h.h.h.h.h.h.h.h.",
"h.h.h.h.h.h.h.h.h.h.h.R R E 2.4.I % . $ d d d d d d d d d d - . o 9 2.3.W R R h.h.h.h.h.h.h.h.h.h.h.",
"h.h.h.h.h.h.h.h.h.h.h.R R E :.:.I > O * 5 5 5 5 5 5 5 5 s 5 , + : J :.:.W R R h.h.h.h.h.h.h.h.h.h.h.",
"h.h.h.h.h.h.h.h.h.h.h.R R R R R ~ :.:.P .                 . 8 -.:.*.R R R R R h.h.h.h.h.h.h.h.h.h.h.",
"h.h.h.h.h.h.h.h.h.h.h.R R R R R ~ :.:.P                     8 -.2.*.R R R R R h.h.h.h.h.h.h.h.h.h.h.",
"h.h.h.h.h.h.h.h.h.h.h.h.R R R R ! ^ ^ Y 6 6 6 6 6 6 6 6 6 6 K ! *.~ E R R R h.h.h.h.h.h.h.h.h.h.h.h.",
"h.h.h.h.h.h.h.h.h.h.h.h.h.h.h.h.h.W W R Y Y Y Y Y Y Y Y Y Y T E W E h.h.h.h.h.h.h.h.h.h.h.h.h.h.h.h.",
"h.h.h.h.h.h.h.h.h.h.h.h.h.h.h.h.h.R R W E E E E R R E R E E E E E E h.h.h.h.h.h.h.h.h.h.h.h.h.h.h.h.",
"h.h.h.h.h.h.h.h.h.h.h.h.h.h.h.h.! ^ ^ ^ *.^ ^ *.*.^ ^ *.^ ^ ^ ^ ^ ! h.h.h.h.h.h.h.h.h.h.h.h.h.h.h.h.",
"h.h.h.h.h.h.h.h.h.h.h.h.h.h.R R ~ <.3.4.3.4.4.4.4.4.4.3.2.4.4.4.2.*.E R h.h.h.h.h.h.h.h.h.h.h.h.h.h.",
"h.h.h.h.h.h.h.h.h.h.h.h.h.h.R R ~ :.3.3.2.4.4.4.4.3.3.4.4.4.4.2.2.*.R R h.h.h.h.h.h.h.h.h.h.h.h.h.h.",
"h.h.h.h.h.h.h.h.h.h.h.R R E -.;.5.w.y...b b b b b b b b b b ` e.r.7.;.-.W R R h.h.h.h.h.h.h.h.h.h.h.",
"h.h.h.h.h.h.h.h.h.h.h.R R E 2.4.9.p.s.X.0 0 0 0 0 0 0 0 0 0 ' i.a.w.4.4.W R R h.h.h.h.h.h.h.h.h.h.h.",
"h.h.h.h.h.h.h.h.h.h.h.R R E 4.4.9.p.s.| 0 0 0 0 0 0 0 0 0 0 F i.a.q.4.4.W E R h.h.h.h.h.h.h.h.h.h.h.",
"h.h.h.h.h.h.h.h.R R R :.4.4.a.d.X.a w D g.g.D 0 0 0 0 0 0 0 0 0 i ] a.d.7.2.:.E R R h.h.h.h.h.h.h.h.",
"h.h.h.h.h.h.h.h.R R E ;.4.5.a.d.X.a r D g.g.D 0 0 0 0 0 0 0 0 0 u ] a.a.6.4.2.R R R h.h.h.h.h.h.h.h.",
"h.h.h.h.h.h.h.h.R R R :.4.4.o.O.} S C G @.@.B 0 0 l M M M M M M N F o.#.<.4.:.E R R h.h.h.h.h.h.h.h.",
"h.h.h.h.h.h.h.h.R R R ;.2.>.q 0 S 8.f.+.0 0 0 0 0 %.&.&.&.&.&.&.#.Z 0 0 / 3.:.E R R h.h.h.h.h.h.h.h.",
"h.h.h.h.h.h.h.h.R R R :.3.>.q 0 S 8.f.+.0 0 0 0 0 &.&.&.&.&.&.&.$.Z 0 0 / 4.2.R R R h.h.h.h.h.h.h.h.",
"h.h.h.h.h.h.h.h.R R R ;.4.>.q 0 S 8.f.+.0 0 0 0 0 V V H &.&.&.&.#.Z 0 0 / 4.2.R R R h.h.h.h.h.h.h.h.",
"h.h.h.h.h.h.h.h.R R R :.4.>.w 0 S 8.f.+.0 0 0 0 0 r e N &.&.&.&.$.S 0 0 / 3.:.R R R h.h.h.h.h.h.h.h.",
"h.h.h.h.h.h.h.h.R R R :.2.>.w 0 S 8.f.+.0 0 0 0 0 0 0 j #.#.$.&.#.Z 0 0 / 4.2.R R R h.h.h.h.h.h.h.h.",
"h.h.h.h.h.h.h.h.R R R :.3.>.q 0 S 8.f.+.0 0 0 0 0 0 0 p V V { %.#.Z 0 0 / 4.:.E R R h.h.h.h.h.h.h.h.",
"h.h.h.h.h.h.h.h.R R R ;.2.>.q 0 S 8.f.+.0 0 0 0 0 0 0 0 0 0 S #.#.Z 0 0 / 4.:.R R R h.h.h.h.h.h.h.h.",
"h.h.h.h.h.h.h.h.R R R :.4.>.q 0 S 8.f.+.0 0 0 0 0 0 0 0 0 0 Z #.#.S 0 0 / 4.:.E R R h.h.h.h.h.h.h.h.",
"h.h.h.h.h.h.h.h.R R E :.4.5.u.u.| l i t 0 0 0 0 0 0 0 0 0 0 w t h ' i.u.7.<.:.E R R h.h.h.h.h.h.h.h.",
"h.h.h.h.h.h.h.h.R R R ;.2.4.d.a.X.a 0 0 0 0 0 0 0 0 0 0 0 0 0 0 y ] a.a.7.4.:.E R R h.h.h.h.h.h.h.h.",
"h.h.h.h.h.h.h.h.h.R R ;.2.3.p.a.o.n i t 0 0 0 0 0 0 0 0 0 0 w i k } a.a.4.:.:.R R h.h.h.h.h.h.h.h.h.",
"h.h.h.h.h.h.h.h.h.h.h.R R E 4.4.9.p.s.| 0 0 0 0 0 0 0 0 0 0 F i.a.w.4.4.W R R h.h.h.h.h.h.h.h.h.h.h.",
"h.h.h.h.h.h.h.h.h.h.h.R R E 2.4.9.p.a.X.0 0 0 0 0 0 0 0 0 0 ' i.a.r.4.4.W R R h.h.h.h.h.h.h.h.h.h.h.",
"h.h.h.h.h.h.h.h.h.h.h.h.R E *.*.3.9.e...A A A A A A A A A A  .0.w.4.-.*.W R h.h.h.h.h.h.h.h.h.h.h.h.",
"h.h.h.h.h.h.h.h.h.h.h.h.h.h.W E *.2.5.<.) ) ) ( ( ( ( ( ( ( ,.5.4.-.W W h.h.h.h.h.h.h.h.h.h.h.h.h.h.",
"h.h.h.h.h.h.h.h.h.h.h.h.h.h.R R ^ :.2.2.2.2.2.2.2.2.2.2.2.2.2.2.:.*.R R h.h.h.h.h.h.h.h.h.h.h.h.h.h.",
"h.h.h.h.h.h.h.h.h.h.h.h.h.h.R R ! *.=.*.=.*.*.=.*.-.*.*.=.=.*.*.*.^ R R h.h.h.h.h.h.h.h.h.h.h.h.h.h.",
"h.h.h.h.h.h.h.h.h.h.h.h.h.h.h.h.h.R R R E R E R R R R E R R E R R h.h.h.h.h.h.h.h.h.h.h.h.h.h.h.h.h.",
"h.h.h.h.h.h.h.h.h.h.h.h.h.h.h.h.h.R R R R R R R R R R R R R R R R h.h.h.h.h.h.h.h.h.h.h.h.h.h.h.h.h.",
"h.h.h.h.h.h.h.h.h.h.h.h.h.h.h.h.h.h.h.h.h.h.h.h.h.h.h.h.h.h.h.h.h.h.h.h.h.h.h.h.h.h.h.h.h.h.h.h.h.h.",
"h.h.h.h.h.h.h.h.h.h.h.h.h.h.h.h.h.h.h.h.h.h.h.h.h.h.h.h.h.h.h.h.h.h.h.h.h.h.h.h.h.h.h.h.h.h.h.h.h.h.",
"h.h.h.h.h.h.h.h.h.h.h.h.h.h.h.h.h.h.h.h.h.h.h.h.h.h.h.h.h.h.h.h.h.h.h.h.h.h.h.h.h.h.h.h.h.h.h.h.h.h."
};
