/* XPM */
static char *c2209730a9a54412f87662074d51acf1la3J9QzNA5yupzSP[] = {
/* columns rows colors chars-per-pixel */
"32 32 20 1 ",
"  c None",
". c #250500",
"X c #2F0901",
"o c #380901",
"O c #461102",
"+ c #571604",
"@ c #601602",
"# c #6A2408",
"$ c #722104",
"% c #7B300B",
"& c #8A3608",
"* c #9D450C",
"= c #9B571C",
"- c #C67D1F",
"; c #E1A428",
": c #FFC42C",
"> c #F6C431",
", c #FFEA35",
"< c #FFFF5F",
"1 c #FFFFAA",
/* pixels */
"                                ",
"       XX                       ",
"      X,,XX                     ",
"     X#:;,<X                    ",
"     X*#;==1X                   ",
"      .#;;%=<X   XXXXXX         ",
"      .*#-;%=,X X>>,<<1X        ",
"       .*#-;%=,X;;====;<X       ",
"        X*#-;%=>O=----=;,X      ",
"         .&#-;%=>O;;;;-=:X      ",
"          .&#-;=;O;>,1;-=,X     ",
"           .&#--;;O>>,,;=:X     ",
"            .&##--O>>>>;=;X     ",
"             .o&#o;>>>;=;#X     ",
"             .@oo=-;;;=;-#.     ",
"             .$+--====;-#*.     ",
"        XXXX  .$+#---;##*.      ",
"       X>,,<XX .&&####&*.       ",
"      X>;===<1X ..&&**..        ",
"     X>;=;;-==<X  ....          ",
"    .+;=-;>,;-=,X               ",
"    .#;=->>,1;-=,X              ",
"    .#;=-;>>,,;=:X              ",
"    .*#;=-;>>,>-=:X             ",
"     .#;;=-;>>;-=:X             ",
"     .*#;;=-;;-=:-X             ",
"      .*#;;====;-+.             ",
"       .*##;;;;-+@.             ",
"        .**#####$.              ",
"         ..**&&&.               ",
"           .....                ",
"                                "
};
