/* XPM */
static char *result[] = {
/* columns rows colors chars-per-pixel */
"64 64 220 2 ",
"   c #231615",
".  c #241917",
"X  c #261B1A",
"o  c #2A1D1C",
"O  c #261818",
"+  c #331D1D",
"@  c #2C211E",
"#  c #27201E",
"$  c #33221D",
"%  c #3E2319",
"&  c #2B1F21",
"*  c #2C2322",
"=  c #2F2928",
"-  c #2B2625",
";  c #322524",
":  c #332926",
">  c #322728",
",  c #352C2B",
"<  c #3A2D2D",
"1  c #392927",
"2  c #35302F",
"3  c #3B312E",
"4  c #3C2F30",
"5  c #3C3332",
"6  c #3E3A36",
"7  c #3F3A3A",
"8  c #3B3436",
"9  c #4C240E",
"0  c #592C0F",
"q  c #452313",
"w  c #4B2613",
"e  c #452B1E",
"r  c #4B2B1C",
"t  c #452619",
"y  c #532D1A",
"u  c #5C2E18",
"i  c #572C14",
"p  c #5D3319",
"a  c #573118",
"s  c #4B301F",
"d  c #69350C",
"f  c #653315",
"g  c #6B3514",
"h  c #6C3915",
"j  c #64351B",
"k  c #66391C",
"l  c #6C3B1B",
"z  c #683816",
"x  c #743C14",
"c  c #733E1B",
"v  c #7A3E19",
"b  c #793E15",
"n  c #6B350E",
"m  c #442C22",
"M  c #472D26",
"N  c #4B3022",
"B  c #44332C",
"V  c #583725",
"C  c #433534",
"Z  c #423936",
"A  c #443C3B",
"S  c #493D3C",
"D  c #463738",
"F  c #533D34",
"G  c #533F3C",
"H  c #482E30",
"J  c #6B3E24",
"K  c #653B23",
"L  c #75421D",
"P  c #7C441C",
"I  c #7A4117",
"U  c #44423D",
"Y  c #49413E",
"T  c #564236",
"R  c #5A4435",
"E  c #53433C",
"W  c #5B463A",
"Q  c #5E4939",
"!  c #6D4123",
"~  c #67412B",
"^  c #6D452C",
"/  c #6C472A",
"(  c #744323",
")  c #7B4522",
"_  c #7C4A24",
"`  c #73452B",
"'  c #744A2B",
"]  c #7C4C2C",
"[  c #764826",
"{  c #7E532F",
"}  c #644B3C",
"|  c #654837",
" . c #734D34",
".. c #7A4E32",
"X. c #7E5233",
"o. c #73523A",
"O. c #76543B",
"+. c #463E40",
"@. c #483E42",
"#. c #464341",
"$. c #4C4442",
"%. c #4E4C4A",
"&. c #4E4847",
"*. c #524544",
"=. c #544945",
"-. c #5B4A44",
";. c #534C4B",
":. c #5A4E4B",
">. c #584644",
",. c #56514E",
"<. c #5B524D",
"1. c #534E51",
"2. c #5E4F51",
"3. c #555353",
"4. c #5C5454",
"5. c #565A55",
"6. c #5B5956",
"7. c #5D5B5B",
"8. c #58575A",
"9. c #4E4F4F",
"0. c #614C44",
"q. c #61524D",
"w. c #685343",
"e. c #755740",
"r. c #625553",
"t. c #625956",
"y. c #6C5D55",
"u. c #635C5B",
"i. c #6B5D5D",
"p. c #64575A",
"a. c #745D55",
"s. c #5B605B",
"d. c #63615D",
"f. c #6B615D",
"g. c #746154",
"h. c #786455",
"j. c #73655C",
"k. c #7C635B",
"l. c #5D5D64",
"z. c #615D62",
"x. c #685F62",
"c. c #5E6165",
"v. c #656363",
"b. c #6B6464",
"n. c #6D6966",
"m. c #65666B",
"M. c #6B666B",
"N. c #6C6B6C",
"B. c #65686D",
"V. c #716564",
"C. c #716966",
"Z. c #736C6B",
"A. c #796D6A",
"S. c #73716D",
"D. c #7A726E",
"F. c #6C6D72",
"G. c #656A72",
"H. c #726E72",
"J. c #6F7375",
"K. c #6F7279",
"L. c #737272",
"P. c #7A7574",
"I. c #7D7875",
"U. c #73757A",
"Y. c #7B7A7D",
"T. c #77787B",
"R. c #6F716C",
"E. c #81461E",
"W. c #834A1D",
"Q. c #8A4D1E",
"!. c #804214",
"~. c #94511F",
"^. c #854C22",
"/. c #8B4E23",
"(. c #894E29",
"). c #855125",
"_. c #8C5224",
"`. c #84512C",
"'. c #8B532B",
"]. c #8B592B",
"[. c #925324",
"{. c #935629",
"}. c #93592C",
"|. c #9A5823",
" X c #895732",
".X c #965C32",
"XX c #837C7C",
"oX c #817675",
"OX c #81756D",
"+X c #7E807F",
"@X c #83827E",
"#X c #7C7D82",
"$X c #797C84",
"%X c #817F82",
"&X c #7D8183",
"*X c #7F838A",
"=X c #838284",
"-X c #83858B",
";X c #85898D",
":X c #8A8A8D",
">X c #898586",
",X c #928C8F",
"<X c #868B92",
"1X c #8A8C92",
"2X c #848C98",
"3X c #928F93",
"4X c #8C9195",
"5X c #8D9299",
"6X c #879090",
"7X c #939294",
"8X c #93959A",
"9X c #9D9A9C",
"0X c #999799",
"qX c #87908F",
"wX c #A09998",
"eX c #9C9CA2",
"rX c #9EA1A3",
"tX c #A7A8AB",
"yX c #AFAEB5",
"uX c None",
/* pixels */
"uXuXuXuXuXuXuXuXuXuXuXuXuXuXuXuXuXuXuXuXuXuXuXuXuXuXuXuXuXuXuXuXuXuXuXuXuXuXuXuXuXuXuXuXuXuXuXuXuXuXuXuXuXuXuXuXuXuXuXuXuXuXuXuX",
"uXuXuXuXuXuXuXuXuXuXuXuXuXuXuXuXuXuXuXuXuXuXuXuXuXuXuXuXuXuXuXuXuXuXuXuXuXuXuXuXuXuXuXuXuXuXuXuXuXuXuXuXuXuXuXuXuXuXuXuXuXuXuXuX",
"uXuXuXuXuXuXuXuXuXuXuXuXuXuXuXuXuXuXuXuXuXuXuXuXuXuXuXuXuXuXuXuXuXuXuXuXuXuXuXuXuXuXuXuXuXuXuXuXuXuXuXuXuXuXuXuXuXuXuXuXuXuXuXuX",
"uXuXuXuXuXuXuXuXuXuXuXuXuXuXuXuXuXuXuXuXuXuXuXuXuXuXuXuXuXuXuXuXuXuXuXuXuXuXuXuXuXuXuXuXuXuXuXuXuXuXuXuXuXuXuXuXuXuXuXuXuXuXuXuX",
"uXuXuXuXuXuXuXuXuXuXuXuXuXuXuXuXuXuXuXuXuXuXuXuXuXuXuXuXuXuXuXuXuXuXuXuXuXuXuXuXuXuXuXuXuXuXuXuXuXuXuXuXuXuXuXuXuXuXuXuXuXuXuXuX",
"uXuXuXuXuXuXuXuXuXuXuXuXuXuXuXuXuXuXuXuXuXuXuXuXuXuXuXuXuXuXuXuXuXuXuXuXuXuXuXuXuXuXuXuXuXuXuXuXuXuXuXuXuXuXuXuXuXuXuXuXuXuXuXuX",
"uXuXuXuXuXuXuXuXuXuXuXuXuXuXuXuXuXuXuXuXuXuXuXuXuXuXuXuXuX, 3 : 6 5 , 8 3 3 5 2 uXuXuXuXuXuXuXuXuXuXuXuXuXuXuXuXuXuXuXuXuXuXuXuX",
"uXuXuXuXuXuXuXuXuXuXuXuXuXuXuXuXuXuXuXuXC 5 < 5 A ; C t.$.p.f.< P.C.B d.f.S C.*.$.:.A : 3 uXuXuXuXuXuXuXuXuXuXuXuXuXuXuXuXuXuXuX",
"uXuXuXuXuXuXuXuXuXuXuXuXuXuXuXuXuX= , *.XXoX5 u.6.: u.b.$.4.6.C d.r.3 6.:.*.6.Y t.u.u.Y C.*.Y =., uXuXuXuXuXuXuXuXuXuXuXuXuXuXuX",
"uXuXuXuXuXuXuXuXuXuXuXuXuXuXuXuX3 D.C.A d.f.6 ,.6.2 4.f.U 4.6.4 5.u.B R.4.$.t.U ;.v.<.&.6.*.C.f.A 3 6 uXuXuXuXuXuXuXuXuXuXuXuXuX",
"uXuXuXuXuXuXuXuXuXuXuXuXuX; S ;.5 f.6.C 6.P.8 *.S.6 :.4.6 =.4.B u.L.Z <.*.&.6.D <.v.A :.S.D n.u.5 oXb.2 , uXuXuXuXuXuXuXuXuXuXuX",
"uXuXuXuXuXuXuXuXuXuXuXuXC ;.A.v.3 &.t.$.A t.A A n.D ;.<.Z %.;.< ;.3.5 A S D 3.< ;.5., u.d.A v.6.<.C.p.$.b.6 = uXuXuXuXuXuXuXuXuX",
"uXuXuXuXuXuXuXuXuXuX5 C 1 < 6.7.4.C f.u.5 :.A , ;., Z C , @.;.; 5 8 ; , < < U 1 A 7 C ;.;.S 4.C C.d.;.t.v.,.@ 1 uXuXuXuXuXuXuXuX",
"uXuXuXuXuXuXuXuXuXuX5 C.t.5 5 4.6.&.Y 5.< C , o = # o o o X . o o X o X X o o o X * ; 5 < S <.2 A.b.5 Z.7., C p., uXuXuXuXuXuXuX",
"uXuXuXuXuXuXuXuXuX1 3 d.n.7.2 5 5.<.- = @ . X       X o & & * * * @ * * * @ o O X     * ; ; : 6 i.A ,.n.$.& b.b.A * uXuXuXuXuXuX",
"uXuXuXuXuXuXuXuX, :., , ,.5.6.3 2 7 * X     > $.N.=X3X9XwX7X3X>XJ.:.I.;X3X7X0X0X:X=XZ.&.: ; X * : : 3.$.> :.I.n.< ; o uXuXuXuXuX",
"uXuXuXuXuXuXuX, t.f.b.A o C :.*.X X X X &.9XyXtX8X1X1X;X;X1X:X1X*X1.=X4X1X;X:X;X<X:X8XtXtX7X;.o   @ 5 , D d.3., A D.$.uXuXuXuXuX",
"uXuXuXuXuXuXuX5 < t.S.7.$.> : = @   A :XtX5X:X>XXXoXA.V.i.y.H.<X*X;.-X;XZ.a.V.A.A.P.%X3X1X8XyX>X3 X . : &.#., &.C.u.6.; uXuXuXuX",
"uXuXuXuXuXuX, A 5 # , %.8.:.: .   9.tX4X:X=Xq.B t + q w q w =.1X*X;.*X1XE r y N N e m G V.>X1X8XtX@.  * , ; d.@XS.s.,.= uXuXuXuX",
"uXuXuXuXuXuX6 d.N.7.8 - 6 S ;   7 rX4X>Xr.q y i K j c ) j J Q 1X-X;.-X1XG p ` `.] k ` p r t p.>X7X0X4 O ; :.,.$.U , * = > uXuXuX",
"uXuXuXuXuXuX6 6.N.Z.Z.A - o X X 3X1X:X>.9 0 ^.c ^.v _.[.c [ Q :X$X1.-X1XF k )..X Xl  X`.f 0 q r.1X8XXXO & 4 < 1 C *.4.3.< uXuXuX",
"uXuXuXuXuXuXo , $.&.&.8.6.< X ;.eX:Xr.r l /.^.^.).x {.[.v [ 0.:X%X1.%X1XF k )..X}.z /.`.f c ( q N.<XeXA   * 6.f.P.P.6.%., uXuXuX",
"uXuXuXuXuXo S D > * * , 5 * . %X3X%Xt j /.[.Q.^.).h }.[.c ` -.:X$X1.-X1XF h )..X{.z /.`.j ^._.i m >X5Xv.X : *.$.D 2 > * * uXuXuX",
"uXuXuXuXuX= x.P.N.7.%.8 ; o = 3X1XV.w c {./.E./.`.h }.{.c J -.:X%X1.-X1XT k ).{.'.z [.'.z ^._.d q H.1X#X@ o , < > , 8 5 > uXuXuX",
"uXuXuXuXuX, 3.6.7.3.3.7.:.@ 5 1X1X-.` v {.`.^./.'.b {.'.l ~ -.:X%X1.-X:XT j `.[./.l ~._.z Q.[.d K 6.1X%X3 , 7.u.v.S.P.6., uXuXuX",
"uXuXuXuXuX* : , 2 , , Z 1 O D ;X1XF `.I [._.v /.(.b }._.l J -.:X%X1.-X1XE p (.[./.c /._.z ^.[.n / >.1XXX3 * A $.&.;.;.U ; uXuXuX",
"uXuXuXuXuX@ r.i.V.Z.p.*.o   +.;X4XF `.I |.Q.v [./.x |.~.l J :.1X#X1.*X5XE f /.[.^.h {.].f ^.'.n  .E 1X%XD @ X . , 8 A C ; uXuXuX",
"uXuXuXuXuX# $.6.v.5.3.&.=   +.;X:XF X.P [._.J '.`.c {.[.h ~ -.1X#X1.*X2X$.u (.{./.h _.}.f ^.'.g ^ E 1XY.U $ u.n.I.@XoXf.$.uXuXuX",
"uXuXuXuXuXo < < , < 3 5 *   A ;X1X*.w.} O.e.} e.o.Q O.e.| } 2.1XY.;.=X1X3.F e.O.o.Q o.O.F o.O.~ w.;.1X#XA o C C Z A Y A < uXuXuX",
"uXuXuXuXuX& D *.x.V.b.b.S   U -X5XN.d.=XN.L.>Xf.@XU.v.>XM.XXK.2XT.;.Y.1XK.7.=XP.R.;Xu.+XT.m.-Xb.T.U.2XY.8 o : 3 , Z Y &., uXuXuX",
"uXuXuXuXuX* #.3.3.9.9.%.3 . U -X<Xl.8.N.i.f.N.4.V.v.4.Z.p.V.G.2XT.%.Y.<Xm.<.n.x.u.N.8.n.m.6.N.t.b.B.<XT.Z & 6.d.d.S.S.d.A uXuXuX",
"uXuXuXuXuXo @ * < , , , : . A *X:XS r y u u r a y r u a q m :.1XU.9.$X<X%.% a u i 9 u u w i u w N *.:XT.7 & A A 6 U #.$.3 uXuXuX",
"uXuXuXuXuX@ :.6.8.f.b.<.,   7 ;X<XT ( h ^.P ! W.c k E.E.f ~ 4.1XU.&.#X;X:.y _ E.( f E.^.j ( _ n ~ -.<XT.5 o 1 1 @ X # $ # uXuXuX",
"uXuXuXuXuX* :.8.6.b.L.S.;.o 4 %X<XY X.x {.).P [.) ( /./.h ..2.1XH.S #X<X:.a _._.^.g /.{.g /.[.x [ :.2XK.5 * u.H.S.Z.N.Z.A uXuXuX",
"uXuXuXuXuX* 6 D ;.5.8.3.C o 5 $X<X>.{ x |.W.P ~.E.L Q.Q.h ..4.1XH.U Y.<X<.f /._.W.h _.}.g ^.[.b ^ <.<XK.H * 1.7.6.3.3.;.3 uXuXuX",
"uXuXuXuXuXo , , * * > @ o . 2 +X<XE  .x {.W.P }.^.( Q.).z o.6.1XG.Z $X<Xr.p _._.P z /.].z (.|.b  .:.<XJ.< X ; ; * * @ @ @ uXuXuX",
"uXuXuXuXuX; u.b.t.7.b.8.Y X < &X:XW o.l }.E.L ].) ) ^.).l o.q.1XG.6 $X1X6.V ].'.) k )..Xk ^.}.c o.<.1XL., @ $.&.1.4.6.4., uXuXuX",
"uXuXuXuXuX, 4.f.N.u.7.6.Y $ < =X<Xu.f.j.g.a.j.g.j.g.g.h.a.V.b.qXN.8 T.;Xv.y.h.h.g.i.g.h.y.y.k.a.V.z.1XN., & ;.4.3.;.b.b.5 uXuXuX",
"uXuXuXuXuX; A &.A 5 8 8 , # = &X5XN.8.<XL.U.*Xl.-XT.v.:Xv.$XU.4Xm.7 U.;XJ.8.-XT.F.<Xl.=X#Xl.:Xv.Y.U.<XH.2 o ; 1 1 ; , : @ uXuXuX",
"uXuXuXuXuX& 5 C 5 < C 5 * . - +X5Xs.>.t.<.:.4.>.2.:.-.:.-.<.c.:XM.5 T.*Xc.E w.:.:.4.W 0.4.*.4.>.:.u.<XF.> & :.r.v.u.i.v.Z uXuXuX",
"uXuXuXuXuX8 t.N.>XR.v.s.$.# - Y.;X<.V K ` K j l u p z k 0 V 4.4Xm.4 U.<X4.y h h p y l k i j l 0 p :.;XB., @ 6.v.v.7.7.u.A uXuXuX",
"uXuXuXuXuX: $.5.s.,.#.#.5 # : Y.1X<. .[  X'./.'.L P /._ g ..4.4Xm.2 J.;Xr.J '.(.L l ^._.f ^./.b / <.:XG.1 # U U #.A @.A , uXuXuX",
"uXuXuXuXuX. : 3 < ; * = # . : &X1X-.~ E.}.P P /.I P ~.^.b X.t.:Xv.< J.<X6.! Q.Q.c x /.[.g /.[.P o.<.;Xn.: @ . * D C < < @ uXuXuX",
"uXuXuXuXuX; S =.p.V.P.C.-.. - >X1X=.~ P .X^._ ).L P _.^.v O.t.:Xz.< T.;X4.! Q._.x c _.}.f ^.|.I / t.:XN.$ $ n.S.M.P.P.H.*.5 uXuX",
"uXuXuXuXuX3 8.5.5.5.s.5.U o = >X1X>.^ ) _.W.W.~.x P _.^.I X.t.qXc.< U.:X2.` Q.).I x _.}.z E.].x / q.:XN.; * ;.3.s.N.R.7.&.@ uXuX",
"uXuXuXuXuX= 5 A U 5 2 5 3 , , Y.7Xr.o.` X.' ] `.! ' `...!  .r.4Xl., H.;X3.} X.`./ K `.`.p ]  X/ | 4.;Xm.* o : = = 5 5 Z , * uXuX",
"uXuXuXuXuX; S 3 A =.i.p.*.o , =X<Xm.v.P.Z.Z.I.b.P.A.n.I.j.I.G.4Xx.; H.<XF.f.oXD.Z.Y.f.P.L.n.I.j.A.F.<Xm.@ o D $.&.:.4.p.S , uXuX",
"uXuXuXuXuXY u.d.d.3.%.8.<.X * -X:XG.8.>XN.J.-X7.#XP.7.;Xl.I.U.1Xc.1 K.-XK.3.>XH.N.<X8.Y.#X8.;Xu.T.T.<Xv.* & 2.N.P.N.7.u.;.* uXuX",
"uXuXuXuXuX, #.%.6.5.;.;.$.1 1 %X<X$.M m N m m N m m r N m N 3.1Xz.; F.<X1.M N N m M N N m N N e M 3.<Xv.* o C $.%.#.6 U A @ uXuX",
"uXuXuXuXuX= 8 , , 3 7 3 , ; > Y.<X:.K f v J g v f k v c f J 8.1Xz.$ H.;X4.k v v f j v ) f v P f V 4.:Xm.@ o * ; 3 C D < & 8 uXuX",
"uXuXuXuXuXt.H.Z.u.f.S.v.<.o & T.1X-.J I '.^.v [.x [ {.^.x `.p.4Xl.$ L.<X4.( [.[.b x [.{.v Q.[.P ^ :.:Xv.& # 4.v.L.L.S.v.;.* uXuX",
"uXuXuXuX> :.u.b.6.<.;.6.:.; o P.:X-./ L  X( v  Xh ] (.[ L { <.1Xz.+ L.1X4.^ `.).c l  X'.( /._.L ^ q.:Xm.& * A ,.;.3.3.;.$.@ uXuX",
"uXuXuXuXuX< Z 7 5 5 3 , : o o oX-X;.E T Q R R Q F R | W T W 8.4Xz.$ H.:X4.T | Q T G Q } R Q } F Y 3.;Xz.o + * ; * = * , ; , uXuX",
"uXuXuXuXuXu.C.b.p.V.n.f.S O o I.:X-X<X8X7X9XeXeXeXwX0X8X1X;X=X3Xz.$ H.:X-X-X3X7XeXeX9X9XeXeX7X3X:X*X<Xv.o o ;.V.A.n.N.P.p., uXuX",
"uXuXuXuXuX$.1.d.S.d.3.;.A X o P.XXXX=X@X&X%XXX=X%X%X=XXX=X%X=X@Xr.+ f.XX#X%X%X@X%X%X&X%X%X%X%X=X@X=X=Xp.@ & +.l.v.u.3.9.$.1 uXuX",
"uXuXuXuXuX* > , 8 , ; > + O o C D C C C C D C D H D C C C C C C H + H D C D C C C C C D C D D D Z C C M + o , , , 7 A 2 < uXuXuX",
"uXuXuXuXuXuXuXuXuXuXuXuXuXuXuXuXuXuXuXuXuXuXuXuXuXuXuXuXuXuXuXuXuXuXuXuXuXuXuXuXuXuXuXuXuXuXuXuXuXuXuXuXuXuXuXuXuXuXuXuXuXuXuXuX",
"uXuXuXuXuXuXuXuXuXuXuXuXuXuXuXuXuXuXuXuXuXuXuXuXuXuXuXuXuXuXuXuXuXuXuXuXuXuXuXuXuXuXuXuXuXuXuXuXuXuXuXuXuXuXuXuXuXuXuXuXuXuXuXuX",
"uXuXuXuXuXuXuXuXuXuXuXuXuXuXuXuXuXuXuXuXuXuXuXuXuXuXuXuXuXuXuXuXuXuXuXuXuXuXuXuXuXuXuXuXuXuXuXuXuXuXuXuXuXuXuXuXuXuXuXuXuXuXuXuX",
"uXuXuXuXuXuXuXuXuXuXuXuXuXuXuXuXuXuXuXuXuXuXuXuXuXuXuXuXuXuXuXuXuXuXuXuXuXuXuXuXuXuXuXuXuXuXuXuXuXuXuXuXuXuXuXuXuXuXuXuXuXuXuXuX",
"uXuXuXuXuXuXuXuXuXuXuXuXuXuXuXuXuXuXuXuXuXuXuXuXuXuXuXuXuXuXuXuXuXuXuXuXuXuXuXuXuXuXuXuXuXuXuXuXuXuXuXuXuXuXuXuXuXuXuXuXuXuXuXuX",
"uXuXuXuXuXuXuXuXuXuXuXuXuXuXuXuXuXuXuXuXuXuXuXuXuXuXuXuXuXuXuXuXuXuXuXuXuXuXuXuXuXuXuXuXuXuXuXuXuXuXuXuXuXuXuXuXuXuXuXuXuXuXuXuX",
"uXuXuXuXuXuXuXuXuXuXuXuXuXuXuXuXuXuXuXuXuXuXuXuXuXuXuXuXuXuXuXuXuXuXuXuXuXuXuXuXuXuXuXuXuXuXuXuXuXuXuXuXuXuXuXuXuXuXuXuXuXuXuXuX",
"uXuXuXuXuXuXuXuXuXuXuXuXuXuXuXuXuXuXuXuXuXuXuXuXuXuXuXuXuXuXuXuXuXuXuXuXuXuXuXuXuXuXuXuXuXuXuXuXuXuXuXuXuXuXuXuXuXuXuXuXuXuXuXuX"
};
