/* XPM */
static char *_3a8b8c056a54068ec5416367bb908d8de4CK2fIMrgPpXUQ[] = {
/* columns rows colors chars-per-pixel */
"31 32 155 2 ",
"   c #47704C",
".  c gray2",
"X  c #190F18",
"o  c #504E42",
"O  c black",
"+  c #0C0C0B",
"@  c #030506",
"#  c black",
"$  c #110A07",
"%  c black",
"&  c #291F1E",
"*  c #1C1009",
"=  c #080307",
"-  c black",
";  c #080A08",
":  c #080605",
">  c #4B432F",
",  c #574F34",
"<  c #0D0B0C",
"1  c #3A3725",
"2  c #160F12",
"3  c #423E2E",
"4  c #2B2019",
"5  c #4E4730",
"6  c #3A3220",
"7  c #070301",
"8  c #3C382B",
"9  c #2F2E1F",
"0  c #4F1A49",
"q  c #565439",
"w  c #776D43",
"e  c #44402B",
"r  c #3C3927",
"t  c #1E1912",
"y  c #433C27",
"u  c #29261C",
"i  c #5F5739",
"p  c #55482B",
"a  c #1A381C",
"s  c #30362A",
"d  c #2C2B1E",
"f  c #7A7247",
"g  c None",
"h  c #867F4F",
"j  c #29261F",
"k  c #594F2E",
"l  c #7E6E41",
"z  c #4F462C",
"x  c #0C0603",
"c  c #5A5135",
"v  c #7F7C4F",
"b  c #1C130C",
"n  c #9F9457",
"m  c #605A3A",
"M  c #832D7A",
"N  c #2F7834",
"B  c #154518",
"V  c #544C32",
"C  c #7E3F79",
"Z  c #3A3424",
"A  c #4E442B",
"S  c #5D5745",
"D  c #152235",
"F  c #7C7348",
"G  c #514222",
"H  c #B2A35F",
"J  c #3E4843",
"K  c #CAB967",
"L  c #918A57",
"P  c #6B6642",
"I  c #11222D",
"U  c #BBAD64",
"Y  c #857140",
"T  c #A49456",
"R  c #342D1E",
"E  c #62542F",
"W  c #3F3C28",
"Q  c #423F2B",
"!  c #383626",
"~  c #421E1F",
"^  c #918450",
"/  c #65613E",
"(  c #776145",
")  c #316234",
"_  c #293D5D",
"`  c #867D4F",
"'  c #8B8450",
"]  c #6E2F2A",
"[  c #74583E",
"{  c #AE7341",
"}  c #3A2211",
"|  c #3C2311",
" . c #645B40",
".. c #462813",
"X. c #B87D4B",
"o. c #756C50",
"O. c #361E0F",
"+. c #4D4634",
"@. c #CAAD57",
"#. c #736849",
"$. c #3D2B1B",
"%. c #412511",
"&. c #8D592E",
"*. c #4C3D2B",
"=. c #A79856",
"-. c #694B30",
";. c #6E6339",
":. c #BEA658",
">. c #837A5F",
",. c #7B7053",
"<. c #DAC76D",
"1. c #281408",
"2. c #472913",
"3. c #68613F",
"4. c #A86F40",
"5. c #A56C3D",
"6. c #7F7749",
"7. c #442712",
"8. c #B37A49",
"9. c #D2B662",
"0. c #644F3A",
"q. c #5D452E",
"w. c #442F1D",
"e. c #56503F",
"r. c #8C7C47",
"t. c #B39F52",
"y. c #D6BB5F",
"u. c #764C2A",
"i. c #CAB65D",
"p. c #190C03",
"a. c #2C190B",
"s. c #9B8A4A",
"d. c #6A5A33",
"f. c #276E27",
"g. c #233015",
"h. c #8B814D",
"j. c #986439",
"k. c #6D5136",
"l. c #705339",
"z. c #928D55",
"x. c #7C502B",
"c. c #436228",
"v. c #B18D3E",
"b. c #393B1F",
"n. c #BBA34F",
"m. c #78644C",
"M. c #C1A150",
"N. c #95784B",
"B. c #3E251A",
"V. c #76693C",
"C. c #877F64",
"Z. c #7E5330",
"A. c #9B6438",
"S. c #D1C065",
"D. c #968D74",
/* pixels */
"                                                              ",
"                                                              ",
"                                                              ",
"                                                              ",
"                                                              ",
"                                                              ",
"                              % :                             ",
"                # = $ $ $ $ $ 8 > t $ $ $ $ = #               ",
"                % * } | | | | $.$.| | } O.1.7 %               ",
"                % * ..2.2.2.2.7.%.| %.2.| p.7 %               ",
"                % * } | ..7.| w.b.f.g.O.O.a.x %               ",
"                + 3 h.V.O.B.r.:.=.c.;.6.a.%.* %               ",
"              + F K @.@.=.N.<.y.y.@.9.9.d.$.b @               ",
"              @ h <.S.<.M.t.i.n.i.@.:.v.:.s.n v +             ",
"              @ w ;.o.o. . .#.#.#.#. . . .3.3.f 4             ",
"              X ' i e.0.[ [ m.D.C.,.[ [ -.*.+.P 4             ",
"              . k o.o.u.{ { A.-.*.x.5.4.&.0.>.l / #           ",
"        @ & 4 ~ ` g ,.Z.X.X.X.X.8.X.X.4.&.0.>.r.h I D @       ",
"  O W R 6 f ( ] T ,.o.u.{ { { { { { 5.j.&.q.g l , J _ <       ",
"  @ Q 6 5 p 1 ^ t.+.+.w.q.l.[ [ [ [ [ [ k.*.+.;.H =.g e < %   ",
"d 9 : # s 1 d k 6 j  .z.6.e.S o o o o o 3 3 j t E G A i y ; 9 ",
"m , .   u y 2 .   ; L U Y 5 r = + . X r > > ! # % O @ & 8 w z ",
"< 2 O s ) a #     + q Z X X C M &   . q c p V 5 +     . 1 , & ",
"      a N B O     - -     2 0 0 X     - O % u e :       # #   ",
"      . ; +               - -                   -             ",
"                                                              ",
"                                                              ",
"                                                              ",
"                                                              ",
"                                                              ",
"                                                              ",
"                                                              "
};
