/* XPM */
static char *c8e65d8f004c4dcd8cf7db4340eec278Kf4jS9PwgsajO7pD[] = {
/* columns rows colors chars-per-pixel */
"128 128 44 1 ",
"  c #63391B",
". c #64391B",
"X c #683B1C",
"o c #6A3D1C",
"O c #6E3F1D",
"+ c #6F401D",
"@ c #71411E",
"# c #75431E",
"$ c #77451F",
"% c #79461F",
"& c #7B4720",
"* c #7C4720",
"= c #7F4A23",
"- c #7F4A24",
"; c #804B24",
": c #834D27",
"> c #844E27",
", c #854F29",
"< c #865029",
"1 c #88512B",
"2 c #88522C",
"3 c #8B542E",
"4 c #8C542F",
"5 c #8E5630",
"6 c #905731",
"7 c #905833",
"8 c #935A35",
"9 c #945A35",
"0 c #975C37",
"q c #975C38",
"w c #985D38",
"e c #9C5F3B",
"r c #9B603B",
"t c #9C603B",
"y c #9F633E",
"u c #A0633F",
"i c #A1643E",
"p c #A26440",
"a c #A46641",
"s c #A76843",
"d c #A76944",
"f c #AA6B46",
"g c #AC6C47",
"h c #AC6C48",
/* pixels */
"hhhhhhhhhhhhhhhhhhhhhhhhhhu7777777777777777777777772&&&&&&&&&&&&&&&&&&&&&&&&&&&&&&&&&&&&&&&&&&&&&&&&&&&&&&&&&&&&&&&&&&&&&&&&&&&&",
"hhhhhhhhhhhhhhhhhhhhhhhhhhu777777777777777777777777:&&&&&&&&&&&&&&&&&&&&&&&&&&&&&&&&&&&&&&&&&&&&&&&&&&&&&&&&&&&&&&&&&&&&&&&&&&&&",
"hhhhhhhhhhhhhhhhhhhhhhhhhhi777777777777777777777777=&&&&&&&&&&&&&&&&&&&&&&&&&&&&&&&&&&&&&&&&&&&&&&&&&&&&&&&&&&&&&&&&&&&&&&&&&&&&",
"hhhhhhhhhhhhhhhhhhhhhhhhhhs777777777777777777777775&&&&&&&&&&&&&&&&&&&&&&&&&&&&&&&&&&&&&&&&&&&&&&&&&&&&&&&&&&&&&&&&&&&&&&&&&&&&&",
"hhhhhhhhhhhhhhhhhhhhhhhhhhh577777777777777777777771&&&&&&&&&&&&&&&&&&&&&&&&&&&&&&&&&&&&&&&&&&&&&&&&&&&&&&&&&&&&&&&&&&&&&&&&&&&&&",
"hhhhhhhhhhhhhhhhhhhhhhhhhhh57777777777777777777777:&&&&&&&&&&&&&&&&&&&&&&&&&&&&&&&&&&&&&&&&&&&&&&&&&&&&&&&&&&&&&&&&&&&&&&&&&&&&&",
"hhhhhhhhhhhhhhhhhhhhhhhhhhh877777wfs97777777777777=&&&&=12,*&&&&&&&&&&&&&&&&&&&&&&&&&&&&&&&&&&&&&&&&&&&&&&&&&&&&&&&&&&&&&&&&&&&&",
"hhhhhhhhhhhhhhhhhhhhhhhhhhha67777fhhp77777:;577773&&&&=57772&&&&&&&&&&&&&&&&&&&&&&&&&&&&&&&&&&&&&&&&&&&&&&&&&&&&&&&&&&&&&&&&&&&&",
"hhhhhhhhhhhhhhhhhhhhf08phhhh67777fhhp77777==57777<&&&&,77777=&&&&&&&&&&&&&&&&&&&&&&&&&&&&&&&&&&&&&&&&&&&&&&&&&&&&&&&&&&&&&&&&&&&",
"hhhhhhhhhhhhhhhhhhhhp770hhhhf5777qsa9777775577777:&&&&,77777=&&&&&&&&&&&&&&&&&&&&&&&&&&&&&&&&&&&&&&&&&&&&&&&&&&&&&&&&&&&&&&&&&&&",
"hhhhhhhhhhhhhhhhhhhhf87yhhhhhy5777777777777777777=&&&&=57774&&&&&&&&&&&&&&&&&&&&&&&&&&&&&&&&&&&&&&&&&&&&&&&&&&&&&&&&&&&&&&&&&&&&",
"hhhhhhhhhhhhhhhhhhhhhffhhhhhhhw677777777777777777=&&&&&;452=&&&&&&&&&&&&&&&&&&&&&&&&&&&&&&&&&&&&&&&&&&&&&&&&&&&&&&&&&&&&&&&&&&&&",
"hhhhhhhhhhhhhhhhhhhhhhhhhhhhhhh077777777777777777;&&&&&&&&&&&&&&&&&&&&&&&&&&&&&&&&&&&&&&&&&&&&&&&&&&&&&&&&&&&&&&&&&&&&&&&&&&&&&&",
"hhhhhhhhhhhhhhhhhhhhhhhhhhhhhhhh57777777777777777<&&&&&&&&&&&&&&&&&&&&&&&&&&&&&&&&&&&&&&&&&&&&&&&&&&&&&&&&&&&&&&&&&&&&&&&&&&&&&&",
"hhhhhhhhhhhhhhhhhhhhhhhhhhhhhhhhw77777777777777775&&&&&&&&&&&&&&&&&&&&&&&&&&&&&&&&&&&&&&&&&&&&&&&&&&&&&&&&&&&&&&&&&&&&&&&&&&&&&&",
"hhhhhhhhhhhhhhhhhhhhhhhhhhhhhhhhe77777777777777777,&&&&&&&&&&&&&&&&&&&&&&&&&&&&&&&&&&&&&&&&&&&&&&&&&&&&&&&&&&&&&&&&&&&&&&&&&&&&&",
"hhhhhhhhhhhhhhhhhhhhhhhhhhhhhhhh7777777777777777775=&&&&&&&&&&&&&&&&&&&&&&&&&&&&&&&&&&&&&&&&&&&&&&&&&&&&&&&&&&&&&&&&&&&&&&&&&&&&",
"hhhhhhhhhhhhhhhhhhhhhhhhhhhhhhhf57777777777777777773&&&&&&&&&&&&&&&&&&&&&&&&&&&&&&&&&&&&&&&&&&&&&&&&&&&&&&&&&&&&&&&&&&&&&&&&&&&&",
"hhhhhhhhhhhhhhhhhhhhhhhhhhhhhhh577777777777777777777,&&&&&&&&&&&&&&&&&&&&&&&&&&&&&&&&&&&&&&&&&&&&&&&&&&&&&&&&&&&&&&&&&&&&&&&&&&&",
"hhhhhhhhhhhhhfyyfhhhhhhhhhhhhp57777777777777777777776;&&&&&&&&&&&&&&&&&&&&&&&&&&&&&&&&&&&&&&&&&&&&&&&&&&&&&&&&&&&&&&&&&&&&&&&&&&",
"hhhhhhhhhhhhf8778fhhhhhhhft857777777777777777777777775=&&&&&&&&&&&&&&&&&&&&&&&&&&&&&&&&&&&&&&&&&&&&&&&&&&&&&&&&&&&&&&&&&&&&&&&&&",
"hhhhhhhhhhhhu7777yhhhhhw5677777777777777777777777777773&&&&&&&&&&&&&&&&&&&&&&&&&&&&&&&&&&&&&&&&&&&&&&&&&&&&&&&&&&&&&&&&&&&&&&&&&",
"hhhhhhhhhhhhu7777yhhhh677777yfa977777777777772,,4777777<&&&&&&&&&&&&&&&&&&&&&&&&&&&&&&&&&&&&&&&&&&&&&&&&&&&&&&&&&&&&&&&&&&&&&&&&",
"hhhhhhhhhhhhf9778fhhhy77777yhhhf777777777775;&&&&,777777:&&&&&&&&&&&&&&&&&&&&&&&&&&&&&&&&&&&&&&&&&&&&&&&&&&&&&&&&&&&&&&&&&&&&&&&",
"hhhhhhhhhhhhhfuyfhhhh777777ahhhh97777777777:&&&&&&2777773&&&&&&&&&&&&&&&&&&&&&&&&&&&&&&&&&&&&&&&&&&&&&&&&&&&&&&&&&&&&&&&&&&&&&&&",
"hhhhhhhhhhhhhhhhhhhhh577777yhhhf77777777775&&&&&&&;777775&&&&;2<=&&&&&&&&&&&&&&&&&&&&&&&&&&&&&&&&&&&&&&&&&&&&&&&&&&&&&&&&&&&&&&&",
"hhhhhhhhhhhhhhhhhhhhh5777777pfdq77777777775&&&&&&&=777775&&&&577,&&&&&&&&&&&&&&&&&&&&&&&&&&&&&&&&&&&&&&&&&&&&&&&&&&&&&&&&&&&&&&&",
"hhhhhhhhhhhhhhhhhhhhh5777777777777777777775*&&&&&&;777772&&&&577<&&&&&&&&&&&&&&&&&&&&&&&&&&&&&&&&&&&&&&&&&&&&&&&&&&&&&&&&&&&&&&&",
"hhhhhhhhhhhhhhhhhhhhh8777777777777777777777,&&&&&&277777:&&&&:42=&&&&&&&&&&&&&&&&&&&&&&&&&&&&&&&&&&&&&&&&&&&&&&&&&&&&&&&&&&&&&&&",
"hhhhhhhhhhhhhhhhhhhhhi7777777777777777777775:&&&&,777775&&&&&&&&&&&&&&&&&&&&&&&&&&&&&&&&&&&&&&&&&&&&&&&&&&&&&&&&&&&&&&&&&&&&&&&&",
"hhhhhhhhhhhhhhhhhhhhhh577777777777777777777773<<5777777;&&&&&&&&&&&&&&&&&&&&&&&&&&&&&&&&&&&&&&&&&&&&&&&&&&&&&&&&&&&&&&&&&&&&&&&&",
"hhhhhhhhhhhhhhhhhhhhhhw7777777777777777777777777777777,&&&&&&&&&&&&&&&&&&&&&&&&&&&&&&&&&&&&&&&&&&&&&&&&&&&&&&&&&&&&&&&&&&&&&&&&&",
"hhhhhhhhhhhhhhhhhhhhhhh5777777777777777777777777777771&&&&&&&&&&&&&&&&&&&&&&&&&&&&&&&&&&&&&&&&&&&&&&&&&&&&&&&&&&&&&&&&&&&&&&&&&&",
"hhhhhhhhhhhhhhhhhhhhhhht77777777777777777777777777772&&&&&&&&&&&&&&&&&&&&&&&&&&&&&&&&&&&&&&&&&&&&&&&&&&&&&&&&&&&&&&&&&&&&&&&&&&&",
"hhhhhhhhhhhhhhhhhhhhhhhh577777777777777777777777777<&&&&&&&&&&&&&&&&&&&&&&&&&&&&&&&&&&&&&&&&&&&&&&&&&&&&&&&&&&&&&&&&&&&&&&&&&&&&",
"hhhhhhhhhhhhhhhhhhhhhhhhw7777777777777wq7777777776>&&&&&&&&&&&&&&&&&&&&&&&&&&&&&&&&&&&&&&&&&&&&&&&&&&&&&&&&&&&&&&&&&&&&&&&&&&&&&",
"hhhhhhhhhhhgapfhhhhhhhhhs7777777777778hf777777775;&&&&&&&&&&&&&&&&&&&&&&&&&&&&&&&&&&&&&&&&&&&&&&&&&&#Ooo@%&&&&&&&&&&&&&&&&&&&&&&",
"hhhhhhhhhhf9778ahhhhhhhhf7777777777777yw77777772=&&&&&&&&&&&&&&&&&&&&&&&&&&&&&&&&&&&&&&&&&&&&&&&&&&+     .$&&&&&&&&&&&&&&&&&&&&&",
"hhhhhhhhhhr77778hhhhhhhhu777777777777777777775:&&&&&&&&&&&&&&&&&&&&&&&&&&&&&&&&&&&&&&&&&&&&&&&&&&&@       .&&&&&&&&&&&&&&&&&&&&&",
"hhhhhhhhhh977777fhhhhhhh67777777777777777775,&&&&&&&&&&&&&&&&&&&&&&&&&&&&&&&&&&&&&&&&&&&&&&&&&&&&&o        #&&&&&&&&&&&&&&&&&&&&",
"hhhhhhhhhhw77778fhhhhhhy7777777777777777774=&&&&&&&&&&&&&&&&&&&&&&&&&&&&&&&&&&&&&&&&&&&&&&&&&&&&&&         O&&&&&&&&&&&&&&&&&&&&",
"hhhhhhhhhhd8777uhhhhhha5777777777777777774=&&=&&&&&&&&&&&&&&&&&&&&&&&&&&&&&&&&&&&&&&&&&&&&&&&&&&&&         O&&&&&&&&&&&&&&&&&&&&",
"hhhhhhhhhhhfyyahhhhhha5777777777777777775=&:572=&&&&&&&&&&&&&&&&&&&&&&&&&&&&&&&&&&&&&&&&&&&&&&&&&&o        #&&&&&&&&&&&&&&&&&&&&",
"hhhhhhhhhhhhhhhhhhhhy5777777777777777777,&=5777<&&&&&&&&&&&&&&&&&&&&&&&&&&&&&&&&&&&&&&&&&&&&&&&&&&@       .&&&&&&&&&&&&&&&&&&&&&",
"hhhhhhhhhhhhhhhhhhp677777777777777777775=&-77772&&&&&&&&&&&&&&&&&&&&&&&&&&&&&&&&&&&&&&&&&&&&&&&&&&&+     .$&&&&&&&&&&&&&&&&&&&&&",
"uiw09990wwyuuyw0757777777777777777777773&&*5777:&&&&&&&&&&&&&&&&&&&&&&&&&&&&&&&&&&&&&&&&&&&&&&&&&&&&#Ooo@%&&&&&&&&&&&&&&&&&&&&&&",
"777777777777777777777777777777777777777<&&&=24,&&&&&&&&&&&&&&&&&&&&&&&&&&&&&&&&&&&&&&&&&&&&&&&&&&&&&&&&&&&&&&&&&&&&&&&&&&&&&&&&&",
"777777777777777777777777777777777777777<&&&&&&&&&&&&&&&&&&&&&&&&&&&&&&&&&&&&&&&&&&&&&&&&&&&&&&&&&&&&&&&&&&&&&&&&&&&&&&&&&&&&&&&&",
"7777777777777wafdy877777777777777777777<&&&&&&&&&&&&&&&&&&&&&&&&&&&&&&&&&&&&&&&&&&&&&&&&&&&&&&&&&&&&&&&&&&&&&&&&&&&&&&&&&&&&&&&&",
"777777777777yhhhhhf877777777777777777772&&&&&&&&&&&&&&&&&&&&#o%&&&&&&&&&&&&&&&&&&&&&&&&&&&&&&&&&&&&&&&&&&&&&&&&&&&&&&&&&&&&&&&&&",
"777777777770hhhhhhhp7777775:==,577777773&&&&&&&&&&&&&&&&&&&&@.%&&&&&&&&&&&&&&&&&&&&&&&&&&&&&&&&&&&&&&&&&&&&&&&&&&&&&&&&&&&&&&&&&",
"77ypw777777ihhhhhhhg877775=&&&&:77777775&&&&&&&&&&&&&&&&&&&&&&&&&&&&&&&&&&&&&&&&&&&&&&&&&&&&&&&&&&&&&&&&&&&&&&&&&&&&&&&&&&&&&&&&",
"70hhf777777ahhhhhhhh97777<&&&&&&37777777=&&&&&&&&&&&&&&&&&&&&&&&&&&&&&&&&&&&&&&&&&&&&&&&&&&&&&&&&&&&&&&&&&&&&&&&&&&&&&&&&&&&&&&&",
"70hhf777777phhhhhhhh87777>&&&&&&17777777,&&&&&&&&&&&&&&&&&&&&&&&&&&&&&&&&&&&&&&&&&&&&&&&&&&&&&&&&&&&&&&&&&&&&&&&&&&&&&&&&&&&&&&&",
"77wpq777777qhhhhhhha77777<&&&&&&277777774&&&&&&&&&&&&&&&&&&&&&&&&&&&&&&&&&&&&&&&&&&&&&&&&&&&&&&&&&&&&&&&&&&&&&&&&&&&&&&&&&&&&&&&",
"777777777777uhhhhhf9777775=&&&&;777777777=&&&&&&&&&&&&&&&&&&&&&&&&&&&&&&&&&&&&&&&&&&&&&&&&&&&&&&&&&&&&&&&&&&&&&&&&&&&&&&&&&&&&&&",
"7777777777777rdffp877777775;&&:5777777777>&&&&&&&&&&&=;=&&&&&&&&&&&&&&&&&&&&&&&&&&&&&&&&&&&&&&&&&&&&&&&&&&&&&&&&&&&&&&&&&&&&&&&&",
"777777777777777777777777777757777777777772&&&&&&&&&&2775:&&&&&&&&&&&&&&&&&&&&&&&&&&&&&&&&&&&&&&&&&&&&&&&&&&&&&&&&&&&&&&&&&&&&&&&",
"777777777777777777777777777777777777777777=&&&&&&&&,77777-&&&&&&&&&&&&&&&&&&&&&&&&&&&&&&&&&&&&&&&&&&&&&&&&&&&&&&&&&&&&&&&&&&&&&&",
"7777777772:=;17777777777777777777777777777,&&&&&&&&577777<&&&&&&&&&&&&&&&&&&&&&&&&&&&&&&&&&&&&&&&&&&&&&&&&&&&&&&&&&&&&&&&&&&&&&&",
"77777777,&&&&&:7777777777777777777777777773&&&&&&&&577777<&&&&&&&&&&&&&&&&&&&&&&&&&&&&&&&&&&&&&&&&&&&&&&&&&&&&&&&&&&&&&&&&&&&&&&",
"77777772&&&&&&&<777777777777777777777777777=&&&&&&&<77777;&&&&&&&&&&&&&&&&&&&&&&&&&&&&&&&&&&&&&&&&&&&&&&&&&&&&&&&&&&&&&&&&&&&&&&",
"7777777:&&&&&&&=777777777777777777777777777:&&&&&&&*2775>&&&&&&&&&&&&&&&&&&&&&&&&&&&&&&&&&&&&&&&&&&&&&&&&&&&&&&&&&&&&&&&&&&&&&&&",
"7777777=&&&&&&&&777777777777777777777777777<&&&&&&&&&=;=&&&&&&&&&&&&&&&&&&&&&&&&&&&&&&&&&&&&&&#@%&&&&&&&&&&&&&&&&&&&&&&&&&&&&&&&",
"7777777:&&&&&&&=7777777777777777777777777772&&&&&&&&&&&&&&&&&&&&&&&&&&&&&&&&&&&&&&&&&&&&&&&&&@  .%&&&&&&&&&&&&&&&&&&&&&&&&&&&&&&",
"77777772&&&&&&&,7777777777777777777777777773&&&&&&&&&&&&&&&&&&&&&&&&&&&&&&&&&&&&&&&&&&&&&&&&&o   @&&&&&&&&&&&&&&&&&&&&&&&&&&&&&&",
"77777777:&&&&&=57777777777777777777777777772&&&&&&&&&&&&&&&&&&&&&&&&&&&&&&&&&&&&&&&&&&&&&&&&&+   $&&&&&&&&&&&&&&&&&&&&&&&&&&&&&&",
"777777777<=&=,57777777777777777777777777777:&&&&&&&&&&&&&&&&&&&&&&&&&&&&&&&&&&&&&&&&&&&&&&&&&&+o#&&&&&&&&&&&&&&&&&&&&&&&&&&&&&&&",
"777777777777777777777777777775::47777777777=&&&&&&&&&&&&&&&&&&&&&&&&&&&&&&&&&&&&&&&&&&&&&&&&&&&&&&&&&&&&&&&&&&&&&&&&&&&&&&&&&&&&",
"77777777777777777777777777777;&&=5777777772&&&&&&&&&&&&&&&&&&&&&&&&&&&&&&&&&&&&&&&&&&&&&&&&&&&&&&&&&&&&&&&&&&&&&&&&&&&&&&&&&&&&&",
"77777777777777777777777777777=&&&577777777;&&&&&&&&&&&&&&&&&&&&&&&&&&&&&&&&&&&&&&&&&&&&&&&&&&&&&&&&&&&&&&&&&&&&&&&&&&&&&&&&&&&&&",
"77777777777777777777777777777,&&=777777773&&&&&&&&&&&&&&&&&&&&&&&&&&&&&&&&&&&&&&&&&&&&&&&&&&&&&&&&&&&&&&&&&&&&&&&&&&&&&&&&&&&&&&",
"77777777777777777777777777777722577777775=&&&&&&&&&&&&&&&&&&&&&&&&&&&&&&&&&&&&&&&&&&&&&&&&&&&&&&&&&&&&&&&&&&&&&&&&&&&&&&&&&&&&&&",
"7777777777777777777777777777777777777777,&&&&&&&&&&&&&&&&&&&&&&&&&&&&&&&&&&&&&&&&&&&&&&&&&&&&&&&&&&&&&&&&&&&&&&&&&&&&&&&&&&&&&&&",
"52,,,<257777777777777777777777777777777<&&&&&&&&&&&&&&&&&&&&&&&&&&&&&&&&&&&&&&&&&&&&&&&&&&&&&&&&&&&&&&&&&&&&&&&&&&&&&&&&&&&&&&&&",
"=&&&&&&&=;,257777777777777777777777775,&&&&&&&&&&&&&&&&&&&&&&&&&&&&&&&&&&&&&&&&&&&&&&&&&&&&&&&&&&&&&&&&&&&&&&&&&&&&&&&&&&&&&&&&&",
"&&&&&&&&&&&&&=:<457777777777777777772=&&&&&&&&&&&&&&&&&&&&&&&&&&&&&&&&&&&&&&&&&&&&&&&&&&&&&&&&&&&&&&&&&&&&&&&&&&&&&&&&&&&&&&&&&&",
"&&&&&&&:&&&&&&&&&&=:<3577777777775<=&&&&&&&&&&&*=&&&&&&&&&&&&&&&&&&&&&&&&&&&&&&&&&&&&&&&&&&&&&&&&&&&&&&&&&&&&&&&&&&&&&&&&&&&&&&&",
"&&&&&&&,*&&&&&&&&&&&&&&=;::,,,:;=&&&&&&&&&&&&&&47:&&&&&&&&&&&&&&&&&&&&&&&&&&&&&&&&&&&&&&&&&&&&&&&&&&&&&&&&&&&&&&&&&&&&&&&&&&&&&&",
"&&&&&&&&&&&&&&&&&&&&&&&&&&&&&&&&&&&&&&&&&&&&&&&57,&&&&&&&&&&&&&&&&&&&&&&&&&&&&&&&&&&&&&&&&&&&&&&&&&&&&&&&&&&&&&&&&&&&&&&&&&&&&&&",
"&&&&&&&&&&&&&&&&&&&&&&&&&&&&&&&&&&&&&&&&&&&&&&&=:&&&&&&&&&&&&&&&&&&&&&&&&&&&&&&&&&&&&&&&&&&&&&&&&&&&&&&&&&&&&&&&&&&&&&&&&&&&&&&&",
"&&&&&&&&&&&&&&&&&&&&&&&&&&&&&&&&&&&&&&&&&&&&&&&&&&&&&&&&&&&&&&&&&&&&&&&&&&&&&&&&&&&&&&&&&&&&&&&&&&&&&&&&&&&&&&&&&&&&&&&&&&&&&&&&",
"&&&&&&&&&&&&&&&&&&&&&&&&&&&&&&&&&&&&&&&&&&&&&&&&&&&&&&&&&&&&&&&&&&&&&&&&&&&&&&&&&&&&&&&&&&&&&&&&&&&&&&&&&&&&&&&&&&&&&&&&&&&&&&&&",
"&&&&&&&&&&&&&&&&&&&&&&&&&&&&&&&&&&&&&&&&&&&&&&&&&&&&&&&&&&&&&&&&&&&&&&&&&&&&&&&&&&&&&&&&&&&&&&&&&&&&&&&&&&&&&&&&&&&&&&&&&&&&&&&&",
"&&&&&&&&&&&&&&&&&&&&&&&&&&&&&&&&&&&&&&&&&&&&&&&&&&&&&&&&&&&&&&&&&&&&&&&&&&&&&&&&&&&&&&&&&&&&&&&&&&&&&&&&&&&&&&&&&&&&&&&&&&&&&&&&",
"&&&&&&&&&&&&&&=&&&&&&&&&&&&&&&&&&&&&&&&&&&&&&&&&&&&&&&&&&&&&&&&&&&&&&&&&&&&&&&&&&&&&&&&&&&&&&&&&&&&&&&&&&&&&&&&&&&&&&&&&&&&&&&&&",
"&&&&&&&&&&&;3775:&&&&&&&&&&&&&&&&&&&&&&&&&&&&&&&&&&&&&&&&&&&&&&&&&&&&&&&&&&&&&&&&&&&&&&&&&&&&&&&&&&&&&&&&&$##%&&&&&&&&&&&&&&&&&&",
"&&&&&&&&&&;677777,&&&&&&&&&&&&&&&&&&&&&&&&&&&&&&&&&&&&&&&&&&&&&&&&&&&&&&&&&&&&&&&&&&&&&&&&&&&&&&&&&&&&&%O.    o$&&&&&&&&&&&&&&&&",
"&&&&&&&&&&57777777=&&&&&&&&&&&&&&&&&&&&&&&&&&&&&&&&&&&&&&&&&&&&&&&&&&&&&&&&&&&&&&&&&&&&&&&&&&&&&&&&&&&$.        @&&&&&&&&&&&&&&&",
"&&&&&&&&&-77777777,&&&&&&&&&&&&&&&&&&&&&&&&&&&&&&&&&&&&&&&&&&&&&&&&&&&&&&&&&&&&&&&&&&&&&&&&&&&&&&&&&&%.          @&&&&&&&&&&&&&&",
"&&&&&&&&&:77777777<&&&&&&&&&&&&&&&&&&&&&&&&&&&&&&&&&&&&&&&&&&&&&&&&&&&&&&&&&&&&&&&&&&&&&&&&&&&&&&&&&&O           .%&&&&&&&&&&&&&",
"&&&&&&&&&=77777777:&&&&&&&&&&&&&&&&&&&&&&&&&&&&&&&&&&&&&&&&&&&&&&&&&&&&&&&&&&&&&&&&&&&&&&&&&&&&&&&&&%             @&&&&&&&&&&&&&",
"&&&&&&&&&&27777775=&&&&&&&&&&&&&&&&&&&&&&&&&&&&&&&&&&&&&&&&&&&&&&&&&&&&&&&&&&&&&&&&&&&&&&&&&&&&&&&&&@             o&&&&&&&&&&&&&",
"&&&&&&&&&&=577775;&&&&&&&&&&&&&&&&&&&&&&&&&&&&&&&&&&&&&&&&&&&&&&&&&&&&&&&&&&&&&&&&&&&&&&&&&&&&&&&&&&@             .&&&&&&&&&&&&&",
"&&&&&&&&&&&=,22<=&&&&&&&&&&&&&&&&&&&&&&&&&&&&&&&&&&&&&&&&&&&&&&&&&&&&&&&&&&&&&&&&&&&&&&&&&&&&&&&&&&&@             .&&&&&&&&&&&&&",
"&&&&&&&&&&&&&&&&&&&&&&&&&&&&&&&&&&&&&&&&&&&&&&&&&&&&&&&&&&&&&&&&&&&&&&&&&&&&&&&&&&&&&&&&&&&&&&&&&&&&#             o&&&&&&&&&&&&&",
"&&&&&&&&&&&&&&&&&&&&&&&&&&&&&&&&&&&&&&&&&&&&&&&&&&&&&&&&&&&&&&&&&&&&&&&#OoO@%&&&&&&&&&&&&&&&&&&&&&&&%.            @&&&&&&&&&&&&&",
"&&&&&&&&&&&&&&&&&&&&&&&&&&&&&&&&&&&&&&&&&&&&&&&&&&&&&&&&&&&&&&&&&&&&&%o     .@&&&&&&&&&&&&&&&&&&&&&&&@           .&&&&&&&&&&&&&&",
"&&&&&&&&&&&&&&&&&&&&&&&&&&&&&&&&&&&&&&&&&&&&&&&&&&&&&&&&&&&&&&&&&&&&$.        +&&&&&&&&&&&&&&&&&&&&&&&o         .$&&&&&&&&&&&&&&",
"&&&&&&&&&&&&&&&&&&&&&&&&&&&&&&&&&&&&&&&&&&&&&&&&&&&&&&&&&&&&&&&&&&&&.          #&&&&&&&&&&&&&&&&&&&&&&%o       .$&&&&&&&&&&&&&&&",
"&&&&&&&&&&&&&&&&&&&&&&&&&&&&&&&&&&&&&&&&&&&&&&&&&&&&&&&&&&&&&&&&&&&@           o&&&&&&&&&&&&&&&&&&&&&&&&#o. .o@%&&&&&&&&&&&&&&&&",
"&&&&&&&&&&&&&&&&&&&&&&&&&&&&&&&&&&&&&&&&&&&&&&&&&&&&&&&&&&&&&&&&&&&O            %&&&&&&&&&&&&&&&&&&&&&&&&&&&&&&&&&&&&&&&&&&&&&&&",
"&&&&&&&&&&&&&&&&&&&&&&&&&&&&&&&&&&&&&&&&&&&&&&&&&&&&&&&&&&&&&&&&&&&o            $&&&&&&&&&&&&&&&&&&&&&&&&&&&&&&&&&&&&&&&&&&&&&&&",
"&&&&&&&&&&&&&&&&&&&&&&&&&&&&&&&&&&&&&&&&&&&&&&&&&&&&&&&&&&&&&&&&&&&o            $&&&&&&&&&&&&&&&&&&&&&&&&&&&&&&&&&&&&&&&&&&&&&&&",
"&&&&&&&&&&&&&&&&&&&&&&&&&&&&&&&&&&&&&&&&&&&&&&&&&&&&&&&&&&&&&&&&&&&O           .%&&&&&&&&&&&&&&&&&&&&&&&&&&&&&&&&&&&&&&&&&&&&&&&",
"&&&&&&&&&&&&&&&&&&&&&&&&&&&&&&&&&&&&&&&&&&&&&&&&&&&&&&&&&&&&&&&&&&&$           o&&&&&&&&&&&&&&&&&&&&&&&&&&&&&&&&&&&&&&&&&&&&&&&&",
"&&&&&&&&&&&&&&&&&&&&&&&&&&&&&&&&&&&&&&&&&&&&&&&&&&&&&&&&&&&&&&&&&&&&O         .%&&&&&&&&&&&&&&&&&&&&&&&&&&&&&&&&&&&&&&&&&&&&&&&&",
"&&&&&&&&&&&&&&&&&&&&&&&&&&&&&&&&&&&&&&&&&&&&&&&&&&&&&&&&&&&&&&&&&&&&%o       .#&&&&&&&&&&&&&&&&&&&&&&&&&&&&&&&&&&&&&&&&&&&&&&&&&",
"&&&&&&&&&&&&&&&&&&&&&&&&&&&&&&&&&&&&&&&&&&&&&&&&&&&&&&&&&&&&&&&&&&&&&&+.    o$&&&&&&&&&&&&&&&&&&&&&&&&&&&&&&&&&&&&&&&&&&&&&&&&&&",
"&&&&&&&&&&&&&&&&&&&&&&&&&&&&&&&&&&&&&&&&&&&&&&&&&&&&&&&&&&&&&&&&&&&&&&&%#@#%&&&&&&&&&&&&&&&&&&&&&&&&&&&&&&&&&&&&&&&&&&&&&&&&&&&&",
"&&&&&&&&&&&&&%+o.XO#&&&&&&&&&&&&&&&&&&&&&&&&&&&&&&&&&&&&&&&&&&&&&&&&&&&&&&&&&&&&&&&&&&&&&&&&&&&&&&&&&&&&&&&&&&&&&&&&&&&&&&&&&&&&",
"&&&&&&&&&&&&+       o%&&&&&&&&&&&&&&&&&&&&&&&&&&&&&&&&&&&&&&&&&&&&&&&&&&&&&&&&&&&&&&&&&&&&&&&&&&&&&&&&&&&&&&&&&&&&&&&&&&&&&&&&&&",
"&&&&&&&&&&&o         .%&&&&&&&&&&&&&&&&&&&&&&&&&&&&&&&&&&&&&&&&&&&&&&&&&&&&&&&&&&&&&&&&&&&&&&&&&&&&&&&&&&&&&&&&&&&&&&&&&&&&&&&&&",
"&&&&&&&&&&@           o&&&&&&&&&&&&&&&&&&&&&&&&&&&&&&&&&&&&&&&&&&&&&&&&&&&&&&&&&&&&&&&&&&&&&&&&&&&&&&&&&&&&&&&&&&&&&&&&&&&&&&&&&",
"&&&&&&&&&%.            @&&&&&&&&&&&&&&&&&&&&&&&&&&&&&&&&&&&&&&&&&&&&&&&&&&&&&&&&&&&&&&&&&&&&&&&&&&&&&&&&&&&&&&&&&&&&&&&&&&&&&&&&",
"&&&&&&&&&@             o&&&&&&&&&&&&&&&&&&&&&&&&&&&&&&&&&&&&&&&&&&&&&&&&&&&&&&&&&&&&&&&&&&&&&&&&&&&&&&&&&&&&&&&&&&&&&&&&&&&&&&&&",
"&&&&&&&&&O             .&&&&&&&&&&&&&&&&&&&&&&&&&&&&&&&&&&&&&&&&&&&&&&&&&&&&&&&&&&&&&&&&&&&&&&&&&&&&&&&&&&&&&&&&&&&&&&&&&&&&&&&&",
"&&&&&&&&&O             .&&&&&&&&&&&&&&&&&&&&&&&&&&&&&&&&&&&&&&&&&&&&&&&&&&&&&&&&&&&&&&&&&&&&&&&&&&&&&&&&&&&&&&&&&&&&&&&&&&&&&&&&",
"&&&&&&&&&+             .&&&&&&&&&&&&&&&&&&&&&&&&&&&&&&&&&&&&&&&&&&&&&&&&&&&&&&&&&&&&&&&&&&&&&&&&&&&&&&&&&&&&&&&&&&&&&&&&&&&&&&&&",
"&&&&&&&&&#             o&&&&&&&&&&&&&&&&&&&&&&&&&&&&&&&&&&&&&&&&&&&&&&&&&&&&&&&&&&&&&&&&&&&&&&&&&&&&&&&&&&&&&&&&&&&&&&&&&&&&&&&&",
"&&&&&&&&&&.            #&&&&&&&&&&&&&&&&&&&&&&&&&&&&&&&&&&&&&&&&&&&&&&&&&&&&&&&&&&&&&&&&&&&&&&&&&&&&&&&&&&&&&&&&&&&&&&&&&&&&&&&&",
"&&&&&&&&&&@           o&&&&&&&&&&&&&&&&&&&&&&&&&&&&&&&&&&&&&&&&&&&&&&&&&&&&&&&&&&&&&&&&&&&&&&&&&&&&&&&&&&&&&&&&&&&&&&&&&&&&&&&&&",
"&&&&&&&&&&&O         .%&&&&&&&&&&&&&&&&&&&&&&&&&&&&&&&&&&&&&&&&&&&&&&&&&&&&&&&&&&&&&&&&&&&&&&&&&&&&&&&&&&&&&&&&&&&&&&&&&&&&&&&&&",
"&&&&&&&&&&&&@.      O%&&&&&&&&&&&&&&&&&&&&&&&&&&&&&&&&&&&&&&&&&&&&&&&&&&&&&&&&&&&&&&&&&&&&&&&&&&&&&&&&&&&&&&&&&&&&&&&&&&&&&&&&&&",
"&&&&&&&&&&&&&%@Ooo+$&&&&&&&&&&&&&&&&&&&&&&&&&&&&&&&&&&&&&&&&&&&&&&&&&&&&&&&&&&&&&&&&&&&&&&&&&&&&&&&&&&&&&&&&&&&&&&&&&&&&&&&&&&&&",
"&&&&&&&&&&&&&&&&&&&&&&&&&&&&&&&&&&&&&&&&&&&&&&&&&&&&&&&&&&&&&&&&&&&&&&&&&&&&&&&&&&&&&&&&&&&&&&&&&&&&&&&&&&&&&&&&&&&&&&&&&&&&&&&&",
"&&&&&&&&&&&&&&&&&&&&&&&&&&&&&&&&&&&&&&&&&&&&&&&&&&&&&&&&&&&&&&&&&&&&&&&&&&&&&&&&&&&&&&&&&&&&&&&&&&&&&&&&&&&&&&&&&&&&&&&&&&&&&&&&",
"&&&&&&&&&&&&&&&&&&&&&&&&&&&&&&&&&&&&&&&&&&&&&&&&&&&&&&&&&&&&&&&&&&&&&&&&&&&&&&&&&&&&&&&&&&&&&&&&&&&&&&&&&&&&&&&&&&&&&&&&&&&&&&&&"
};
