/* XPM */
static char *result[] = {
/* columns rows colors chars-per-pixel */
"64 64 103 2 ",
"   c #B55945",
".  c #C3684C",
"X  c #DE875A",
"o  c #EB9661",
"O  c #DA9D5C",
"+  c #B7AA53",
"@  c #A6B04F",
"#  c #B7A954",
"$  c #DA9C5D",
"%  c #DD875A",
"&  c #C2684C",
"*  c #BC6149",
"=  c #C97050",
"-  c #D77F57",
";  c #E48E5E",
":  c #E48E5D",
">  c #D77F56",
",  c #D07753",
"<  c #C96F4F",
"1  c #BC6048",
"2  c #C86E4F",
"3  c #DF895B",
"4  c #DC8559",
"5  c #E6905E",
"6  c #D27954",
"7  c #C1664B",
"8  c #BD6249",
"9  c #CB7150",
"0  c #BA5F48",
"q  c #B75B46",
"w  c #E38C5D",
"e  c #E99460",
"r  c #D88157",
"t  c #CE7552",
"y  c #C46A4D",
"u  c #DE9B5E",
"i  c #C4A557",
"p  c #B3AB52",
"a  c #AAAE50",
"s  c #D57D56",
"d  c #E79860",
"f  c #CDA159",
"g  c #DF885B",
"h  c #C58552",
"j  c #CF8956",
"k  c #E2925D",
"l  c #B0A250",
"z  c #BF9F54",
"x  c #DC995D",
"c  c #B6A853",
"v  c #D5975A",
"b  c #B2A451",
"n  c #CB8B55",
"m  c #AFA04F",
"M  c #C0804F",
"N  c #D37B55",
"B  c #DA8358",
"V  c #AB9C4D",
"C  c #B6744A",
"Z  c #CD7351",
"A  c #C66C4E",
"S  c #A9A04D",
"D  c #AE7F49",
"F  c #BE774D",
"G  c #D78658",
"H  c #E8925F",
"J  c #E18B5C",
"K  c #A7AB4E",
"L  c #B5934F",
"P  c #CB8654",
"I  c #CD7451",
"U  c #AEA550",
"Y  c #BE9051",
"T  c #BF644A",
"R  c #B85D47",
"E  c #A9AC4F",
"W  c #BC754C",
"Q  c #D28155",
"!  c #B08E4C",
"~  c #B46B48",
"^  c #B96448",
"/  c #B2904D",
"(  c #C17A4F",
")  c #B1A250",
"_  c #C68552",
"`  c #E18A5C",
"'  c #AA9A4C",
"]  c #B16F47",
"[  c #CD8855",
"{  c #DD8C5B",
"}  c #BA9952",
"|  c #CD8755",
" . c #C87550",
".. c #C68051",
"X. c #B9714A",
"o. c #B3914E",
"O. c #C0794E",
"+. c #DB975C",
"@. c #CA8453",
"#. c #BD9D53",
"$. c #D28055",
"%. c #D7935A",
"&. c #C0784E",
/* pixels */
"  . X o o O + @ @ @ @ @ @ @ @ # $ o o o o o o o o o o o o o o o o % & * = - ; o o o o o o o o : > , , < 1     * = < 1           ",
"* 2 3 o o O + @ @ @ @ @ @ @ @ # $ o o o o o o o o o o o o o o o o 3 2 . , 4 5 o o o o o o o o 5 4 - - 6 2 7 8 7 9 9 7 * * 0 q   ",
"= 6 w o o O + @ @ @ @ @ @ @ @ # $ o o o o o o o o o o o o o o o o w 6 , X 5 e o o o o o o o o e 5 ; ; w 3 r t 9 t t 9 = = y 0   ",
", - ; o o u i p a @ @ @ @ a p i u o o o o o o o o o o o o o o o o : > - ; o o o o o o o o o o o o o o o o 5 4 s 6 6 s - - , & * ",
", - ; o o d u f p @ @ @ @ p f u d o o o o o o o o o o o o o o o o : > - ; o o o o o o o o o o o o o o o o e 5 g s s g ; ; % , = ",
"h j k o o o o u i # # # # i u o o o o o o o o o o o o o o o o o o 5 4 4 5 o o o o o o o o o o o o o o o o o o 5 4 4 5 o o 5 4 - ",
"l z x o o o o d u $ $ $ $ u d o o o o o o o o o o o o o o o o o o e 5 5 e o o o o o o o o o o o o o o o o o o e 5 5 e o o e 5 ; ",
"@ # $ o o o o o o o o o o o o o o o o o o o o o o o o o o o o e 5 5 e o o o o o o o o o o o o o o o o o o o o o o o o o o o o o ",
"@ # $ o o o o o o o o o o o o o o o o o o o o o o o o o o o o 5 4 4 5 o o o o o o o o o o o o o o o o o o o o o o o o o o o o o ",
"@ c v 5 e o o o o o o o o o o o o o o o o o o o o o o o o o o : > - ; o o o o o o o o o o o o o o o o o o o o o o e 5 5 e o o o ",
"@ b n 4 5 o o o o o o o o o o o o o o o o o o o o o o o o o o : > - ; o o o o o o o o o o o o o o o o o o o o o o 5 4 4 5 o o o ",
"@ m M 6 w o o o o o o o o o o o o o o o o o o o o o o o o e 5 % , 6 w o o o o o o o o o o o o o o o o o o o o o o : > N B 3 w : ",
"@ V C 2 3 o o o o o o o o o o o o o o o o o o o o o o o o 5 4 , & 2 3 o o o o o o o o o o o o o o o o o o o o o o : > Z A 2 6 > ",
"@ S D F G 5 e o o o o o o o o o o o o o o o o o o o o e 5 % , y 0 7 r 5 e o o o o o o o o o o o o o o o o o o H J B N Z A 2 6 - ",
"@ K S L P 4 5 o o o o o o o o o o o o o o o o o o o o 5 4 , & 0 q 8 t 4 5 o o o o o o o o o o o o o o o o o o J I A Z N B 3 w ; ",
"@ @ @ U Y P G J H o o o o o o o o o o o o e 5 5 e o o 5 4 6 2 T R * = - ; o o o o o o o o o o o o o o o o o o 3 2 . , 4 5 o o o ",
"@ @ @ E U L F I J o o o o o o o o o o o o 5 4 4 5 o o e 5 w 3 N T * = - ; o o o o o o o o o o o o o o o o o o w 6 , X 5 e o o o ",
"@ @ @ @ @ S D W Q % % % % 3 w : : 5 e o o 5 4 4 5 o o o o o o J I A Z s g 5 e o o o o o o o o o o o o o o o o 5 4 4 5 o o o o o ",
"@ @ @ @ @ K S ! W & & & & 2 6 > > 4 5 o o e 5 5 e o o o o o o H J B N 6 s 4 5 o o o o o o o o o o o o o o o o e 5 5 e o o o o o ",
"@ @ @ @ @ @ @ S D ~ ^ * * . , - - 4 5 o o o o o o o o o o o o o o 5 4 s 6 - ; o o o o o o o o o o o o o o e 5 5 e o o o o o o o ",
"@ @ @ @ @ @ @ K S / ( = = , X ; ; 5 e o o o o o o o o o o o o o o e 5 g s - ; o o o o o o o o o o o o o o 5 4 4 5 o o o o o o o ",
"@ @ @ @ @ @ @ @ @ ) _ 6 s 4 5 o o o o o o o o o o o o o o o o o o o o 5 4 B ` 5 e o o o o o o o o o o o o : > - ; o o o o o o o ",
"@ @ @ @ @ @ @ @ @ ) _ s g 5 e o o o o o o o o o o o o o o o o o o o o e 5 ` B 4 5 o o o o o o o o o o o o : > - ; o o o o o o o ",
"@ @ @ @ @ @ @ @ @ b n 4 5 o o o o o o o o o o o o o o o o o o o o o o o o w 6 , X 5 e o o o o o o o o e 5 % , , X 5 e o o o o o ",
"@ @ @ @ @ @ @ @ @ c v 5 e o o o o o o o o o o o o o o o o o o o o o o o o 3 2 . , 4 5 o o o o o o o o 5 4 , & . , 4 5 o o o o o ",
"@ @ @ @ @ @ @ a p i u o o o o o o o o o o o o o o o o o o o o o o o o o o % & 0 y t r % % 3 w : : : : % , y 0 0 y t r 3 w : : : ",
"@ @ @ @ @ @ @ p f u d o o o o o o o o o o o o o o o o o o o o o o o o o o % & q 0 8 7 & & 2 6 > > > > , & 0 q q 0 8 7 2 6 > > > ",
"@ @ @ @ @ E U z x o o o o o o o o o o o o o o o o o o o o o o o o o o o o % &     q 0 8 7 2 6 - - - - 6 2 . . . . . . 2 6 - - - ",
"@ @ @ @ @ U Y j k o o o o o o o o o o o o o o o o o o o o o o o o o o o o % &     0 y t r 3 w ; ; ; ; w 3 X X X X X X 3 w ; ; ; ",
"' V m m V / ( 6 w o o o o o o o o o o o o o o o o o o o o o o o o o o H J s y 8 7 2 6 4 5 o o o o o o o o o o o o o o o o o o o ",
"] C M M C ~ ^ 2 3 o o o o o o o o o o o o o o o o o o o o o o o o o o J I y 2 t r 3 w 5 e o o o o o o o o o o o o o o o o o o o ",
"* . , 6 2 7 8 2 3 o o o o o o o o o o o o o o o o o o o o o o o o e 5 B A . , 4 5 o o o o o o o o o o o o o o o o o o o o o o o ",
"= , X w 3 r t 6 w o o o o o o o o o o o o o o o o o o o o o o o o 5 4 N Z , X 5 e o o o o o o o o o o o o o o o o o o o o o o o ",
"- 4 5 o o 5 4 B ` 5 e o o o o o o o o o o o o o o o o o o o o e 5 % , Z N 4 5 o o o o o o o o o o o o o o o o o o o o o o o o o ",
"; 5 e o o e 5 ` B 4 5 o o o o o o o o o o o o o o o o o o o o 5 4 , & A B 5 e o o o o o o o o o o o o o o o o o o o o o o o o o ",
"o o o o o o o 5 4 4 5 o o o o o o o o o o o o o o o o e 5 : : g s Z A I J o o o o o o o o o o o o o o o o o o o o o o o o o o o ",
"o o o o o o o e 5 5 e o o o o o o o o o o o o o o o o 5 4 > > s 6 N B J H o o o o o o o o o o o o o o o o o o o o o o o o o o o ",
": 5 e o o o o o o e 5 5 e o o o o o o o o e 5 5 e o o 5 4 s 6 6 s 4 5 o o o o o o o o o o o o o o o o o o o o o o o o o o o o o ",
"> 4 5 o o o o o o 5 4 4 5 o o o o o o o o 5 4 4 5 o o e 5 g s s g 5 e o o o o o o o o o o o o o o o o o o o o o o o o o o o o o ",
"h [ { 5 e o o o o : > s g 5 e o o o o o o 5 4 4 5 o o o o : > - ; o o o o o o o o o o o o o o o o o o o o o o o o o o o o o o o ",
"l } | 4 5 o o o o : > 6 s 4 5 o o o o o o e 5 5 e o o o o : > - ; o o o o o o o o o o o o o o o o o o o o o o o o o o o o o o o ",
"@ U Y j k o o o o w 6  ...n v x k : : : : 5 e o o o o o o 5 4 4 5 o o o o o o o o o o o o o o o o o o o o o o o o o o o o o o o ",
"@ E U z x o o o o 3 2 X.o.b c z j > > > > 4 5 o o o o o o e 5 5 e o o o o o o o o o o o o o o o o o o o o o o o o o o o o o o o ",
"@ @ @ p f u d o o { O.D S @ @ m M 9 t , , - ; o o o o e 5 5 e o o o o o o o o o o o o o o o o o o o o o o o o o o o o o o o o o ",
"@ @ @ a p i u o o +.} S K @ @ V C 7 9 , , - ; o o o o 5 4 4 5 o o o o o o o o o o o o o o o o o o o o o o o o o o o o o o o o o ",
"@ @ @ @ @ p f x k v c @ @ a p } O.2 6 - - B ` w 3 3 w % , 6 w o o o o o o o o o o o o o o o o o o o o o o o o o o o o o o o o o ",
"@ @ @ @ @ a p z j n b @ @ p f +.{ 3 w ; ; ` B 6 2 2 6 , & 2 3 o o o o o o o o o o o o o o o o o o o o o o o o o o o o o o o o o ",
"@ @ @ @ @ @ @ ) _ @.#.# # i u o o o o o o 5 4 , . T A y 0 . X o o o o o o o o o o o o o o o o o o o o o o o o o o o o o o o o o ",
"@ @ @ @ @ @ @ ) _ $.%.$ $ u d o o o o o o e 5 X , A T 0 q . X o o o o o o o o o o o o o o o o o o o o o o o o o o o o o o o o o ",
"@ @ @ @ @ @ @ b n 4 5 o o o o o o o o o o o o 5 4 , . 0 q . X o o o o o o o o o o o o o o o o o o o o o o o o o o o o o o o o o ",
"@ @ @ @ @ @ @ c v 5 e o o o o o o o o o o o o e 5 X , y 0 . X o o o o o o o o o o o o o o o o o o o o o o o o o o o o o o o o o ",
"@ @ @ @ @ E U z x o o o o o o o o o o o o o o o o 5 4 , . A B 5 e o o o o o o o o o o o o o o o o o o o o o o o o o o o o o o o ",
"@ @ @ @ @ U Y j k o o o o o o o o o o o o o o o o e 5 X , Z N 4 5 o o o o o o o o o o o o o o o o o o o o o o o o o o o o o o o ",
"@ @ @ @ @ ) _ - ; o o o o o o o o o o o o o o o o o o 5 4 s 6 - ; o o o o o o o o o o o o o o o o o o o o o o o o o o o o o o o ",
"@ @ @ @ @ ) _ - ; o o o o o o o o o o o o o o o o o o e 5 g s - ; o o o o o o o o o o o o o o o o o o o o o o o o o o o o o o o ",
"@ @ @ @ @ b n 4 5 o o o o o o o o o o o o o o o o o o o o 5 4 B ` 5 e o o o o o o o o o o o o o o o o o o e 5 k x O O u d o o o ",
"@ @ @ @ @ c v 5 e o o o o o o o o o o o o o o o o o o o o e 5 ` B 4 5 o o o o o o o o o o o o o o o o o o 5 4 j z + + i u o o o ",
"@ @ @ @ @ # $ o o o o o o o o o o o o o o o o o o o o o o o o : > N B J H o o o o o o o o o o o o o o o o k j Y U @ @ # $ o o o ",
"@ @ @ @ @ # $ o o o o o o o o o o o o o o o o o o o o o o o o : > Z A I J o o o o o o o o o o o o o o o o x z U E @ @ # $ o o o ",
"@ @ @ a p i u d u O O O O u d o o o o o o o o o o o o o o o o 5 4 t 8 T N 3 w 5 e o o o o o o o o o o o o O + @ @ E U z x o o o ",
"@ @ @ p f u d u i + + + + i u o o o o o o o o o o o o o o o o e 5 r 7 R T 2 6 4 5 o o o o o o o o o o o o O + @ @ U Y j k o o o ",
"@ E U z x d u f p @ @ @ @ p f u d o o o o o o o o o o o o o o o o % &     0 y t r 3 w 5 e o o o o o o o o +.} V m } | 4 5 d u O ",
"@ U Y j k u i p a @ @ @ @ a p i u o o o o o o o o o o o o o o o o % &     q 0 8 7 2 6 4 5 o o o o o o o o { &.C M | { 5 e u i + ",
"@ ) _ - ; O + @ @ @ @ @ @ @ @ # $ o o o o o o o o o o o o o o o o % &             * = - ; o o o o o o o o % & * = - ; o o O + @ "
};
